<?xml version="1.0" encoding="UTF-8"?>
<svg version="1.1" xmlns="http://www.w3.org/2000/svg" width="500" height="500">
<path d="M0 0 C19.67783351 17.71471684 31.89554675 40.93578047 36.23168945 66.95263672 C36.36792725 67.74943848 36.50416504 68.54624023 36.64453125 69.3671875 C37.38637545 74.20821596 37.53881127 78.28640592 36.41918945 83.07763672 C34.15313458 84.21066416 32.89974134 84.20981279 30.38427734 84.22290039 C29.13772118 84.23247017 29.13772118 84.23247017 27.86598206 84.24223328 C26.96701706 84.2433461 26.06805206 84.24445892 25.1418457 84.24560547 C23.75841225 84.25059807 23.75841225 84.25059807 22.34703064 84.25569153 C20.39428202 84.26075942 18.44152472 84.2630999 16.48876953 84.26293945 C13.49733242 84.26512529 10.50626437 84.28328062 7.51489258 84.30224609 C5.61971155 84.30518014 3.72452877 84.30716486 1.8293457 84.30810547 C0.93240494 84.31529099 0.03546417 84.3224765 -0.88865662 84.32987976 C-2.13994102 84.32526482 -2.13994102 84.32526482 -3.41650391 84.32055664 C-4.14993515 84.32198166 -4.88336639 84.32340668 -5.63902283 84.32487488 C-7.58081055 84.07763672 -7.58081055 84.07763672 -10.58081055 82.07763672 C-10.9519043 79.39013672 -10.9519043 79.39013672 -11.01831055 76.07763672 C-11.71497352 63.89943207 -17.57039929 52.13078634 -26.5534668 43.79638672 C-34.66798981 36.91702231 -42.40421295 32.30851025 -52.58081055 29.07763672 C-53.31557617 28.83142578 -54.0503418 28.58521484 -54.80737305 28.33154297 C-70.0883307 24.05405482 -86.79361307 27.35443345 -100.58081055 34.45263672 C-105.44340367 37.22186257 -109.456762 40.32017027 -113.58081055 44.07763672 C-114.24081055 44.07763672 -114.90081055 44.07763672 -115.58081055 44.07763672 C-115.58081055 44.73763672 -115.58081055 45.39763672 -115.58081055 46.07763672 C-116.24081055 46.07763672 -116.90081055 46.07763672 -117.58081055 46.07763672 C-117.84249023 46.63322266 -118.10416992 47.18880859 -118.3737793 47.76123047 C-119.72161524 50.34785413 -121.27959498 52.71061816 -122.89331055 55.14013672 C-133.28122107 71.41452987 -135.94254533 87.49639511 -131.95581055 106.39013672 C-129.63459692 116.45898432 -125.87899048 123.75521391 -117.58081055 130.07763672 C-117.58081055 130.73763672 -117.58081055 131.39763672 -117.58081055 132.07763672 C-116.92081055 132.07763672 -116.26081055 132.07763672 -115.58081055 132.07763672 C-115.58081055 132.73763672 -115.58081055 133.39763672 -115.58081055 134.07763672 C-115.0394043 134.31482422 -114.49799805 134.55201172 -113.94018555 134.79638672 C-110.94830917 136.42111429 -108.46921656 138.42782441 -105.83081055 140.57763672 C-104.35354492 141.76873047 -104.35354492 141.76873047 -102.84643555 142.98388672 C-102.0987793 143.67482422 -101.35112305 144.36576172 -100.58081055 145.07763672 C-100.58081055 145.73763672 -100.58081055 146.39763672 -100.58081055 147.07763672 C-99.78416992 147.41794922 -99.78416992 147.41794922 -98.97143555 147.76513672 C-95.79086993 149.51132961 -93.10082148 151.75824958 -90.33081055 154.07763672 C-89.77651367 154.52880859 -89.2222168 154.97998047 -88.65112305 155.44482422 C-87.25349473 156.608367 -85.91195492 157.8385841 -84.58081055 159.07763672 C-84.58081055 159.73763672 -84.58081055 160.39763672 -84.58081055 161.07763672 C-84.0394043 161.29935547 -83.49799805 161.52107422 -82.94018555 161.74951172 C-79.81944947 163.50621746 -77.40283451 165.87211416 -74.83081055 168.32763672 C-70.71633579 172.19648061 -66.57957608 175.75734407 -61.90893555 178.95654297 C-61.4706543 179.32650391 -61.03237305 179.69646484 -60.58081055 180.07763672 C-60.58081055 180.73763672 -60.58081055 181.39763672 -60.58081055 182.07763672 C-60.02522461 182.31353516 -59.46963867 182.54943359 -58.8972168 182.79248047 C-56.01705463 184.39041192 -53.91711979 186.38264172 -51.51831055 188.64013672 C-47.72504064 192.15992655 -43.88836647 195.48457513 -39.83081055 198.70263672 C-32.58415066 204.62419309 -26.95285522 209.72410837 -24.8190918 219.13623047 C-24.279218 225.80057417 -26.36359287 231.72714741 -29.39331055 237.57763672 C-33.56063198 242.34028979 -38.82641244 245.52975988 -45.1237793 246.44873047 C-55.60835744 246.71200643 -61.97598606 242.85562949 -69.51831055 235.82763672 C-70.53927898 234.85518504 -71.55881161 233.88122371 -72.5769043 232.90576172 C-75.29576041 230.30838455 -78.14345708 227.92751949 -81.08081055 225.57763672 C-86.18892801 221.46460708 -90.99834511 217.09262111 -95.80737305 212.64013672 C-101.04310419 207.80261612 -106.42011261 203.19313294 -111.95581055 198.70263672 C-115.58871027 195.75028019 -119.12051816 192.73034756 -122.58081055 189.57763672 C-128.42416943 184.25700643 -134.43227463 178.99697681 -140.90112305 174.44482422 C-141.73256836 173.76806641 -141.73256836 173.76806641 -142.58081055 173.07763672 C-142.58081055 172.41763672 -142.58081055 171.75763672 -142.58081055 171.07763672 C-143.16781738 170.81370117 -143.75482422 170.54976562 -144.35961914 170.27783203 C-162.88235024 160.26928663 -176.03965011 135.95428558 -182.33959961 116.76660156 C-190.69773535 88.59681919 -187.80564656 58.45773002 -174.7331543 32.25732422 C-159.20832218 3.75794041 -134.40293495 -15.45556793 -103.58081055 -24.92236328 C-67.00174681 -35.00672368 -28.27068959 -24.80104407 0 0 Z " fill="#2A2F74" transform="translate(317.580810546875,104.92236328125)"/>
<path d="M0 0 C3.01619051 2.51144026 5.84968128 5.10066864 8.6796875 7.8203125 C10.79705243 10.01787688 10.79705243 10.01787688 13 11 C13 11.66 13 12.32 13 13 C13.54140625 13.2371875 14.0828125 13.474375 14.640625 13.71875 C17.63250137 15.34347757 20.11159399 17.3501877 22.75 19.5 C23.73484375 20.2940625 24.7196875 21.088125 25.734375 21.90625 C26.48203125 22.5971875 27.2296875 23.288125 28 24 C28 24.66 28 25.32 28 26 C28.54140625 26.2371875 29.0828125 26.474375 29.640625 26.71875 C32.63250137 28.34347757 35.11159399 30.3501877 37.75 32.5 C38.73484375 33.2940625 39.7196875 34.088125 40.734375 34.90625 C41.48203125 35.5971875 42.2296875 36.288125 43 37 C43 37.66 43 38.32 43 39 C43.55300781 39.23332031 44.10601562 39.46664062 44.67578125 39.70703125 C47.60462669 41.33635535 49.74867688 43.3894459 52.1875 45.6875 C56.42300399 49.62128126 60.74758329 53.22240744 65.41796875 56.625 C65.94003906 57.07875 66.46210938 57.5325 67 58 C67 58.66 67 59.32 67 60 C67.5775 60.268125 68.155 60.53625 68.75 60.8125 C71.05550043 62.02929189 73.02056192 63.30333879 75 65 C75 65.66 75 66.32 75 67 C75.598125 67.28875 76.19625 67.5775 76.8125 67.875 C79 69 79 69 82 71 C82 71.66 82 72.32 82 73 C82.55171875 73.2371875 83.1034375 73.474375 83.671875 73.71875 C86.56774711 75.31245143 88.79512037 77.28917273 91.25 79.5 C92.14203125 80.2940625 93.0340625 81.088125 93.953125 81.90625 C96 84 96 84 96 86 C96.99 86.33 97.98 86.66 99 87 C102.24577989 90.80838174 105.08933428 94.93208165 108 99 C108.55300781 99.73734375 109.10601562 100.4746875 109.67578125 101.234375 C125.04254546 122.60701741 129.90648554 151.48119103 126.53515625 177.18359375 C125.86566706 180.86380356 125.01595601 184.40006531 124 188 C123.70198486 189.05646729 123.70198486 189.05646729 123.39794922 190.13427734 C115.04171427 219.00866823 97.0673832 243.33870282 70.8125 258.375 C60.46581466 264.01446142 50.44934548 268.11879108 39 271 C38.03731201 271.26925293 38.03731201 271.26925293 37.05517578 271.54394531 C11.14849973 278.22221689 -19.48875916 271.90603327 -42.2878418 258.4987793 C-69.55191146 241.68270353 -87.54979083 216.82006405 -96 186 C-97.69346193 178.45199825 -99.30734819 169.71757158 -98 162 C-94.94603076 159.9640205 -94.35746704 159.75025039 -90.92749023 159.75708008 C-90.11332138 159.75400345 -89.29915253 159.75092682 -88.46031189 159.74775696 C-87.14771141 159.75853523 -87.14771141 159.75853523 -85.80859375 159.76953125 C-84.45701927 159.77021858 -84.45701927 159.77021858 -83.07814026 159.7709198 C-81.17423179 159.77394 -79.27032575 159.78181935 -77.36645508 159.79418945 C-74.44538667 159.8124507 -71.52463517 159.81469907 -68.60351562 159.81445312 C-66.75520558 159.81936823 -64.90689769 159.82519652 -63.05859375 159.83203125 C-61.74295692 159.83370049 -61.74295692 159.83370049 -60.40074158 159.83540344 C-54.23214271 159.88392865 -54.23214271 159.88392865 -52 161 C-51.53117277 163.85833373 -51.15469621 166.68877282 -50.8125 169.5625 C-49.87081618 176.38486362 -48.42180457 182.50748234 -45.625 188.8125 C-45.34503174 189.4506665 -45.06506348 190.08883301 -44.77661133 190.74633789 C-43.2727146 193.94696045 -41.56239274 196.65538405 -39.2734375 199.32421875 C-37 202 -37 202 -37 204 C-36.34 204 -35.68 204 -35 204 C-33.79285325 205.45358847 -32.58867485 206.90982784 -31.40527344 208.3828125 C-23.24678849 217.77159017 -8.14508838 224.63237683 4 226 C25.54687269 227.16330128 41.8656336 223.64003503 58.640625 209.16796875 C70.84876114 197.95022776 78.33712189 182.71940211 79.375 166.1328125 C80.02443383 148.42005598 76.07534386 132.91984621 64.0625 119.375 C63.47597656 118.76398438 62.88945312 118.15296875 62.28515625 117.5234375 C61 116 61 116 61 114 C60.45859375 113.7628125 59.9171875 113.525625 59.359375 113.28125 C56.36749863 111.65652243 53.88840601 109.6498123 51.25 107.5 C50.26515625 106.7059375 49.2803125 105.911875 48.265625 105.09375 C47.14414062 104.05734375 47.14414062 104.05734375 46 103 C46 102.34 46 101.68 46 101 C45.45859375 100.7628125 44.9171875 100.525625 44.359375 100.28125 C41.36749863 98.65652243 38.88840601 96.6498123 36.25 94.5 C35.26515625 93.7059375 34.2803125 92.911875 33.265625 92.09375 C32.14414062 91.05734375 32.14414062 91.05734375 31 90 C31 89.34 31 88.68 31 88 C30.44441406 87.76410156 29.88882813 87.52820313 29.31640625 87.28515625 C26.43624409 85.6872248 24.33630924 83.694995 21.9375 81.4375 C18.24636541 78.0046517 14.49589741 74.72061908 10.5625 71.5625 C6.56774409 68.34055604 2.75459104 64.99331795 -1 61.5 C-7.32721445 55.61651228 -13.92179903 50.08269005 -20.81640625 44.87109375 C-21.53699219 44.25363281 -22.25757813 43.63617188 -23 43 C-23 42.34 -23 41.68 -23 41 C-23.87785156 40.62294922 -23.87785156 40.62294922 -24.7734375 40.23828125 C-27.2789023 38.84489118 -28.74987438 37.34761168 -30.625 35.1875 C-31.21539062 34.52105469 -31.80578125 33.85460937 -32.4140625 33.16796875 C-36.71642965 27.28665405 -36.86063727 21.04646764 -36 14 C-33.80204781 7.54351545 -29.64990565 2.73704522 -24 -1 C-16.70271892 -4.56755964 -6.95161635 -4.28956363 0 0 Z " fill="#1E9ED9" transform="translate(239,164)"/>
<path d="M0 0 C1.22125328 -0.00461494 1.22125328 -0.00461494 2.46717834 -0.00932312 C3.77977882 0.00145515 3.77977882 0.00145515 5.11889648 0.01245117 C6.47047096 0.0131385 6.47047096 0.0131385 7.84934998 0.01383972 C9.75325844 0.01685992 11.65716448 0.02473928 13.56103516 0.03710938 C16.48210356 0.05537062 19.40285507 0.05761899 22.32397461 0.05737305 C24.17228465 0.06228815 26.02059254 0.06811644 27.86889648 0.07495117 C29.18453331 0.07662041 29.18453331 0.07662041 30.52674866 0.07832336 C36.69534753 0.12684857 36.69534753 0.12684857 38.92749023 1.24291992 C39.39631746 4.10125365 39.77279402 6.93169275 40.11499023 9.80541992 C41.05667405 16.62778354 42.50568567 22.75040226 45.30249023 29.05541992 C45.5824585 29.69358643 45.86242676 30.33175293 46.15087891 30.98925781 C47.65477564 34.18988037 49.3650975 36.89830397 51.65405273 39.56713867 C53.92749023 42.24291992 53.92749023 42.24291992 53.92749023 44.24291992 C54.58749023 44.24291992 55.24749023 44.24291992 55.92749023 44.24291992 C57.13463698 45.69650839 58.33881539 47.15274776 59.5222168 48.62573242 C67.68070174 58.0145101 82.78240185 64.87529675 94.92749023 66.24291992 C116.49189137 67.40716755 132.73873397 63.85992638 149.55639648 49.43432617 C154.65989834 44.71758064 158.39448156 39.8267535 161.75170898 33.74682617 C162.1397168 33.25053711 162.52772461 32.75424805 162.92749023 32.24291992 C163.91749023 32.24291992 164.90749023 32.24291992 165.92749023 32.24291992 C165.92749023 31.25291992 165.92749023 30.26291992 165.92749023 29.24291992 C166.58749023 29.24291992 167.24749023 29.24291992 167.92749023 29.24291992 C167.92749023 27.92291992 167.92749023 26.60291992 167.92749023 25.24291992 C168.58749023 25.24291992 169.24749023 25.24291992 169.92749023 25.24291992 C169.92749023 23.26291992 169.92749023 21.28291992 169.92749023 19.24291992 C170.25749023 19.24291992 170.58749023 19.24291992 170.92749023 19.24291992 C171.66513078 30.65176043 169.97376483 39.62212079 165.92749023 50.24291992 C165.2584668 52.03922852 165.2584668 52.03922852 164.57592773 53.87182617 C155.22348225 77.25293989 138.24225695 96.17665574 114.92749023 106.24291992 C97.94572522 113.1365077 81.81144087 112.55041247 64.92749023 106.24291992 C63.7634668 105.83170898 62.59944336 105.42049805 61.40014648 104.99682617 C40.65063565 96.98699209 23.71857605 81.07341847 10.92749023 63.24291992 C10.06704102 62.04989258 10.06704102 62.04989258 9.18920898 60.83276367 C1.18624655 48.60182108 -3.77053258 33.58747198 -6.07250977 19.24291992 C-6.25426758 18.24518555 -6.43602539 17.24745117 -6.62329102 16.21948242 C-7.06691891 13.27996544 -7.27326424 10.46406637 -7.32250977 7.49291992 C-7.34829102 6.54932617 -7.37407227 5.60573242 -7.40063477 4.63354492 C-7.29235352 3.84463867 -7.18407227 3.05573242 -7.07250977 2.24291992 C-4.01854052 0.20694043 -3.4299768 -0.00682969 0 0 Z " fill="#2271B3" transform="translate(148.072509765625,323.757080078125)"/>
<path d="M0 0 C18.87365318 17.47616375 30.48133009 40.32548053 34.6875 65.5625 C34.82373779 66.35930176 34.95997559 67.15610352 35.1003418 67.97705078 C35.84218599 72.81807924 35.99462182 76.8962692 34.875 81.6875 C32.60894512 82.82052744 31.35555189 82.81967607 28.84008789 82.83276367 C27.59353172 82.84233345 27.59353172 82.84233345 26.3217926 82.85209656 C25.42282761 82.85320938 24.52386261 82.8543222 23.59765625 82.85546875 C22.21422279 82.86046135 22.21422279 82.86046135 20.80284119 82.86555481 C18.85009257 82.8706227 16.89733527 82.87296318 14.94458008 82.87280273 C11.95314296 82.87498857 8.96207491 82.89314391 5.97070312 82.91210938 C4.0755221 82.91504342 2.18033931 82.91702814 0.28515625 82.91796875 C-0.61178452 82.92515427 -1.50872528 82.93233978 -2.43284607 82.93974304 C-3.68413048 82.9351281 -3.68413048 82.9351281 -4.96069336 82.93041992 C-5.6941246 82.93184494 -6.42755585 82.93326996 -7.18321228 82.93473816 C-9.125 82.6875 -9.125 82.6875 -12.125 80.6875 C-12.49609375 78 -12.49609375 78 -12.5625 74.6875 C-13.25916297 62.50929535 -19.11458874 50.74064962 -28.09765625 42.40625 C-36.21217926 35.5268856 -43.94840241 30.91837353 -54.125 27.6875 C-54.85976563 27.44128906 -55.59453125 27.19507813 -56.3515625 26.94140625 C-71.63252015 22.6639181 -88.33780252 25.96429673 -102.125 33.0625 C-106.98759312 35.83172585 -111.00095146 38.93003355 -115.125 42.6875 C-115.785 42.6875 -116.445 42.6875 -117.125 42.6875 C-117.125 43.3475 -117.125 44.0075 -117.125 44.6875 C-117.785 44.6875 -118.445 44.6875 -119.125 44.6875 C-119.38667969 45.24308594 -119.64835937 45.79867187 -119.91796875 46.37109375 C-121.26580469 48.95771742 -122.82378443 51.32048144 -124.4375 53.75 C-134.33339316 69.25356595 -137.59714836 84.73425671 -133.78759766 102.86523438 C-132.49959313 108.57878034 -131.06571515 114.15383924 -129.125 119.6875 C-137.12306109 112.57811236 -140.77518497 102.14552637 -142.125 91.6875 C-143.36482777 69.46689745 -139.24257412 52.59129698 -124.2890625 35.6015625 C-112.97956544 23.55348604 -97.14141497 16.60861521 -80.7578125 15.44921875 C-64.31357769 15.10128951 -51.14566513 19.27918263 -37.125 27.6875 C-37.125 28.3475 -37.125 29.0075 -37.125 29.6875 C-36.2896875 30.05875 -36.2896875 30.05875 -35.4375 30.4375 C-32.70089087 31.91674818 -30.44849131 33.62217439 -28.125 35.6875 C-28.125 36.3475 -28.125 37.0075 -28.125 37.6875 C-27.465 37.6875 -26.805 37.6875 -26.125 37.6875 C-24.70331868 39.4260796 -23.36050882 41.22973981 -22.0625 43.0625 C-21.34964844 44.06023437 -20.63679688 45.05796875 -19.90234375 46.0859375 C-18.125 48.6875 -18.125 48.6875 -17.125 50.6875 C-18.5520161 38.59445333 -27.26273098 25.24303983 -35.0625 16.125 C-37.125 13.6875 -37.125 13.6875 -37.125 11.6875 C-37.70765625 11.419375 -38.2903125 11.15125 -38.890625 10.875 C-41.15286601 9.67269009 -42.93076318 8.34924087 -44.875 6.6875 C-45.48859375 6.171875 -46.1021875 5.65625 -46.734375 5.125 C-48.125 3.6875 -48.125 3.6875 -48.125 1.6875 C-48.65609375 1.43742187 -49.1871875 1.18734375 -49.734375 0.9296875 C-52.71988993 -0.62160947 -55.52577305 -2.3982935 -58.375 -4.1875 C-78.27531667 -16.47198614 -100.00927221 -20.52207905 -123.125 -15.3125 C-125.61265724 -14.34942127 -127.92276117 -13.30517235 -130.2578125 -12.01953125 C-132.58703001 -11.13754721 -133.81302549 -11.50587778 -136.125 -12.3125 C-92.99960228 -40.33407179 -37.70241245 -33.94111249 0 0 Z " fill="#1E9ED8" transform="translate(319.125,106.3125)"/>
<path d="M0 0 C0.33 0 0.66 0 1 0 C1.73764055 11.4088405 0.0462746 20.37920087 -4 31 C-4.66902344 32.79630859 -4.66902344 32.79630859 -5.3515625 34.62890625 C-14.70400799 58.01001996 -31.68523328 76.93373582 -55 87 C-67.22550719 91.96282965 -82.4095674 94.79998338 -95 90 C-94.67 88.35 -94.34 86.7 -94 85 C-95.175625 84.5359375 -95.175625 84.5359375 -96.375 84.0625 C-99 83 -99 83 -101 82 C-100.67 80.68 -100.34 79.36 -100 78 C-98.87722656 77.81824219 -97.75445312 77.63648438 -96.59765625 77.44921875 C-85.0538415 75.63893867 -85.0538415 75.63893867 -74 72 C-72.94683594 71.55140625 -71.89367187 71.1028125 -70.80859375 70.640625 C-61.71780296 66.44948106 -54.08673366 61.09803627 -47 54 C-46.67 53.01 -46.34 52.02 -46 51 C-45.34 51 -44.68 51 -44 51 C-44 50.34 -44 49.68 -44 49 C-49.3086849 49.58174845 -49.3086849 49.58174845 -54 52 C-54 51.34 -54 50.68 -54 50 C-54.99 50.495 -54.99 50.495 -56 51 C-58.71760108 51.07181821 -61.40859388 51.09299506 -64.125 51.0625 C-65.25615234 51.05573242 -65.25615234 51.05573242 -66.41015625 51.04882812 C-68.27347127 51.03703499 -70.13674555 51.01909942 -72 51 C-72.33 50.34 -72.66 49.68 -73 49 C-66.73 49 -60.46 49 -54 49 C-54 48.34 -54 47.68 -54 47 C-52.92685547 46.79697266 -52.92685547 46.79697266 -51.83203125 46.58984375 C-36.20146219 43.21299377 -21.40356256 34.13605354 -12 21 C-10.67830342 18.85650354 -9.39307985 16.70842983 -8.17578125 14.50390625 C-7.78777344 14.00761719 -7.39976562 13.51132812 -7 13 C-6.01 13 -5.02 13 -4 13 C-4 12.01 -4 11.02 -4 10 C-3.34 10 -2.68 10 -2 10 C-2 8.68 -2 7.36 -2 6 C-1.34 6 -0.68 6 0 6 C0 4.02 0 2.04 0 0 Z " fill="#263B80" transform="translate(318,343)"/>
<path d="M0 0 C2.91576653 2.91576653 3.45215232 6.4947883 4.5 10.375 C4.71269531 11.12394531 4.92539062 11.87289063 5.14453125 12.64453125 C8.26741523 24.00569812 9.36339989 34.97790426 9.3125 46.75 C9.31100952 47.408862 9.30951904 48.067724 9.3079834 48.74655151 C9.26679005 58.88518689 8.64190847 68.2067186 6 78 C5.7215625 79.23234375 5.443125 80.4646875 5.15625 81.734375 C3.00467672 90.22937983 3.00467672 90.22937983 0.22265625 92.36328125 C-1.6875 93.125 -1.6875 93.125 -5 94 C-5.495 95.485 -5.495 95.485 -6 97 C-6.99 97 -7.98 97 -9 97 C-8.67 98.32 -8.34 99.64 -8 101 C-17.69965758 106.54462695 -27.15625568 111.08127814 -38 114 C-38.93295898 114.26184082 -39.86591797 114.52368164 -40.82714844 114.79345703 C-49.31236282 116.99059091 -57.26310903 117.39396525 -66 117.25 C-67.28261719 117.24484375 -68.56523437 117.2396875 -69.88671875 117.234375 C-80.04274 117.14947618 -80.04274 117.14947618 -85 116 C-85 115.67 -85 115.34 -85 115 C-83.18628906 114.76216797 -83.18628906 114.76216797 -81.3359375 114.51953125 C-57.11963603 111.15015556 -37.31282951 101.62382014 -22.12109375 82 C-11.3058735 66.7033349 -1.05425828 48.23008172 -2 29 C-2.66 29 -3.32 29 -4 29 C-4 30.32 -4 31.64 -4 33 C-4.66 33 -5.32 33 -6 33 C-6 33.99 -6 34.98 -6 36 C-6.66 36 -7.32 36 -8 36 C-7.5875 34.88625 -7.175 33.7725 -6.75 32.625 C-5.14678049 27.81534146 -3.98530325 22.94135879 -2.875 18 C-2.70452148 17.25314941 -2.53404297 16.50629883 -2.35839844 15.73681641 C-1.20956919 10.505418 -0.51830276 5.33111408 0 0 Z " fill="#1F93BC" transform="translate(320,320)"/>
<path d="M0 0 C0 0.66 0 1.32 0 2 C0.556875 2.2475 1.11375 2.495 1.6875 2.75 C4.42410913 4.22924818 6.67650869 5.93467439 9 8 C9 8.66 9 9.32 9 10 C9.66 10 10.32 10 11 10 C12.83984375 12.1953125 12.83984375 12.1953125 14.9375 15.125 C15.97197266 16.55199219 15.97197266 16.55199219 17.02734375 18.0078125 C22.15899218 25.79165943 22.15899218 25.79165943 21.6875 29.375 C21.460625 29.91125 21.23375 30.4475 21 31 C20.36384766 29.93072266 20.36384766 29.93072266 19.71484375 28.83984375 C10.84007608 14.34764073 -0.68348128 5.18018011 -17 0 C-17.73476563 -0.24621094 -18.46953125 -0.49242187 -19.2265625 -0.74609375 C-34.50752015 -5.0235819 -51.21280252 -1.72320327 -65 5.375 C-69.86259312 8.14422585 -73.87595146 11.24253355 -78 15 C-78.66 15 -79.32 15 -80 15 C-80 15.66 -80 16.32 -80 17 C-80.66 17 -81.32 17 -82 17 C-82.39251953 17.83337891 -82.39251953 17.83337891 -82.79296875 18.68359375 C-84.14080469 21.27021742 -85.69878443 23.63298144 -87.3125 26.0625 C-97.20839316 41.56606595 -100.47214836 57.04675671 -96.66259766 75.17773438 C-95.37459313 80.89128034 -93.94071515 86.46633924 -92 92 C-99.99806109 84.89061236 -103.65018497 74.45802637 -105 64 C-106.23982777 41.77939745 -102.11757412 24.90379698 -87.1640625 7.9140625 C-63.55008582 -17.24205143 -27.92050593 -16.74417532 0 0 Z " fill="#BBBAC0" transform="translate(282,134)"/>
<path d="M0 0 C3.33333333 0.66666667 6.66666667 1.33333333 10 2 C11.40185547 2.28037109 11.40185547 2.28037109 12.83203125 2.56640625 C13.54746094 2.70949219 14.26289063 2.85257812 15 3 C15 3.66 15 4.32 15 5 C15.99 5 16.98 5 18 5 C18 5.66 18 6.32 18 7 C18.53625 7.12375 19.0725 7.2475 19.625 7.375 C22.4638286 8.12206016 25.22223202 9.05303364 28 10 C28 10.66 28 11.32 28 12 C28.66 12 29.32 12 30 12 C30 12.66 30 13.32 30 14 C30.928125 14.103125 31.85625 14.20625 32.8125 14.3125 C36.02464205 15.00531495 37.11930017 15.3879169 39 18 C39 18.66 39 19.32 39 20 C39.86818359 20.40798828 39.86818359 20.40798828 40.75390625 20.82421875 C56.01596413 28.81357427 63.90855787 43.08351829 71 58 C71.60521484 59.14275391 71.60521484 59.14275391 72.22265625 60.30859375 C73.26931909 62.58600586 73.13731968 64.5282458 73 67 C70.71999029 64.81555956 68.7750853 62.52071618 66.875 60 C66.35679687 59.319375 65.83859375 58.63875 65.3046875 57.9375 C64 56 64 56 63 53 C62.34 53 61.68 53 61 53 C59.31126121 51.35570171 57.64694485 49.68615782 56 48 C55.236875 47.443125 54.47375 46.88625 53.6875 46.3125 C53.130625 45.879375 52.57375 45.44625 52 45 C52 44.34 52 43.68 52 43 C51.278125 42.731875 50.55625 42.46375 49.8125 42.1875 C46.97011947 40.98738377 44.50357139 39.80813489 42 38 C41.1875 35.8125 41.1875 35.8125 41 34 C40.01 34 39.02 34 38 34 C37.67 33.01 37.34 32.02 37 31 C36.484375 30.505 35.96875 30.01 35.4375 29.5 C34 28 34 28 34 25 C33.4225 24.731875 32.845 24.46375 32.25 24.1875 C29.94449957 22.97070811 27.97943808 21.69666121 26 20 C26 19.34 26 18.68 26 18 C25.34 18 24.68 18 24 18 C24 17.34 24 16.68 24 16 C22.88625 15.566875 22.88625 15.566875 21.75 15.125 C19.43260203 14.17697356 17.22082885 13.15154089 15 12 C15 11.34 15 10.68 15 10 C14.29875 9.731875 13.5975 9.46375 12.875 9.1875 C7.80260854 7.09238179 3.64715276 5.20825319 0 1 C0 0.67 0 0.34 0 0 Z " fill="#1F2257" transform="translate(230,91)"/>
<path d="M0 0 C1.0625 1.875 1.0625 1.875 2 4 C0.75325341 6.49349318 -0.69960106 7.46640071 -3 9 C-3.66 9 -4.32 9 -5 9 C-5.66 11.97 -6.32 14.94 -7 18 C-6.01 17.67 -5.02 17.34 -4 17 C-4 17.66 -4 18.32 -4 19 C-3.01 19.33 -2.02 19.66 -1 20 C-0.505 21.485 -0.505 21.485 0 23 C-2.47769882 23.79651177 -4.95701088 24.58726215 -7.4375 25.375 C-8.12521484 25.59671875 -8.81292969 25.8184375 -9.52148438 26.046875 C-11.67330456 26.72745069 -13.83228201 27.37196729 -16 28 C-16.66821777 28.19924072 -17.33643555 28.39848145 -18.02490234 28.60375977 C-25.19233993 30.48653183 -32.38569927 30.25767137 -39.75 30.1875 C-41.05066406 30.18685547 -42.35132813 30.18621094 -43.69140625 30.18554688 C-54.13840918 30.13713131 -54.13840918 30.13713131 -59 29 C-59 28.67 -59 28.34 -59 28 C-57.18628906 27.76216797 -57.18628906 27.76216797 -55.3359375 27.51953125 C-33.03060783 24.41604183 -15.71109532 16.36800523 0 0 Z " fill="#32B4D8" transform="translate(294,407)"/>
<path d="M0 0 C0.66 0 1.32 0 2 0 C18.57427216 18.47287299 21.94642692 47.7101464 21.17431641 71.24169922 C20.79110018 77.3055325 19.55677834 83.13428163 18 89 C17.34 88.34 16.68 87.68 16 87 C16.26924879 84.65840639 16.61475628 82.32532639 17 80 C17.20617527 75.28983217 17.22782912 70.58118356 17.24023438 65.8671875 C17.24994494 63.63764188 17.28103173 61.40901785 17.3125 59.1796875 C17.37436583 50.73264074 16.85503198 43.71006396 13 36 C13.28112064 33.99199544 13.61067967 31.98985949 14 30 C13.34 30 12.68 30 12 30 C9.79600832 25.44508386 9.41153737 20.97093824 9 16 C8.01 16 7.02 16 6 16 C5.938125 15.113125 5.87625 14.22625 5.8125 13.3125 C5.25807106 9.81535501 5.25807106 9.81535501 2.4375 7.4375 C0 5 0 5 -0.3125 2.1875 C-0.209375 1.465625 -0.10625 0.74375 0 0 Z " fill="#459BC6" transform="translate(345,263)"/>
<path d="M0 0 C8.40005037 7.90592976 13.26170242 17.00734545 18.18212891 27.30957031 C18.83466325 28.65827114 19.52451612 29.98889664 20.2265625 31.3125 C21.26940083 33.58778364 21.13712739 35.53170701 21 38 C18.71999029 35.81555956 16.7750853 33.52071618 14.875 31 C14.35679687 30.319375 13.83859375 29.63875 13.3046875 28.9375 C12 27 12 27 11 24 C10.34 24 9.68 24 9 24 C7.31126121 22.35570171 5.64694485 20.68615782 4 19 C3.236875 18.443125 2.47375 17.88625 1.6875 17.3125 C0.8521875 16.6628125 0.8521875 16.6628125 0 16 C0 15.34 0 14.68 0 14 C-0.7425 13.71125 -1.485 13.4225 -2.25 13.125 C-4.56739797 12.17697356 -6.77917115 11.15154089 -9 10 C-8.443125 9.896875 -7.88625 9.79375 -7.3125 9.6875 C-4.40042308 8.8217474 -2.37791604 7.91554348 0 6 C0.41746608 2.87364791 0.41746608 2.87364791 0 0 Z " fill="#232C63" transform="translate(282,120)"/>
<path d="M0 0 C1.4540625 0.34998047 1.4540625 0.34998047 2.9375 0.70703125 C17.03799687 4.49135578 30.8129582 12.551752 41 23 C42.96778029 24.71009477 44.97764655 26.35389836 47 28 C46.67 28.66 46.34 29.32 46 30 C45.07767578 29.27683594 45.07767578 29.27683594 44.13671875 28.5390625 C43.32847656 27.90742187 42.52023437 27.27578125 41.6875 26.625 C40.88699219 25.99851562 40.08648437 25.37203125 39.26171875 24.7265625 C37.55336788 23.42243282 35.78827274 22.19218183 34 21 C34 20.34 34 19.68 34 19 C32.515 18.505 32.515 18.505 31 18 C31 17.34 31 16.68 31 16 C29.02 15.67 27.04 15.34 25 15 C25 14.34 25 13.68 25 13 C24.34 13 23.68 13 23 13 C23 12.34 23 11.68 23 11 C22.0925 10.87625 21.185 10.7525 20.25 10.625 C17.41029677 10.07890323 15.47409409 9.42736197 13 8 C13 7.34 13 6.68 13 6 C12.01 6 11.02 6 10 6 C10 5.34 10 4.68 10 4 C8.20843648 3.83222817 6.4167455 3.66581706 4.625 3.5 C3.12839844 3.36078125 3.12839844 3.36078125 1.6015625 3.21875 C-0.89703736 2.97207053 -0.89703736 2.97207053 -3 3 C-2.34 3.99 -1.68 4.98 -1 6 C-1.6290625 5.80664062 -2.258125 5.61328125 -2.90625 5.4140625 C-5.59997071 4.59458722 -8.29868047 3.79404781 -11 3 C-11.66773438 2.79890625 -12.33546875 2.5978125 -13.0234375 2.390625 C-18.92440431 0.74731779 -24.90498382 0.38601769 -31 0 C-31 0.66 -31 1.32 -31 2 C-35.95 2.66 -40.9 3.32 -46 4 C-36.19647973 -5.80352027 -12.27026665 -3.31680645 0 0 Z " fill="#102D63" transform="translate(235,90)"/>
<path d="M0 0 C-1.98 0.99 -1.98 0.99 -4 2 C-4 2.66 -4 3.32 -4 4 C-1.03 3.34 1.94 2.68 5 2 C5 2.66 5 3.32 5 4 C6.77117187 4.25523438 6.77117187 4.25523438 8.578125 4.515625 C10.13555121 4.75955923 11.69283585 5.0043985 13.25 5.25 C14.02730469 5.35957031 14.80460937 5.46914062 15.60546875 5.58203125 C20.2758202 6.34046439 22.97785489 7.06796173 26 11 C25.28714844 10.79503906 24.57429688 10.59007813 23.83984375 10.37890625 C22.88207031 10.10949219 21.92429688 9.84007813 20.9375 9.5625 C19.99777344 9.29566406 19.05804688 9.02882813 18.08984375 8.75390625 C3.71557035 5.24665623 -14.89908802 5.00669632 -28.1328125 12.29296875 C-30.46203001 13.17495279 -31.68802549 12.80662222 -34 12 C-23.72440896 5.32323347 -12.65498325 -1.57458317 0 0 Z " fill="#2A98D0" transform="translate(217,82)"/>
<path d="M0 0 C0 0.33 0 0.66 0 1 C-2.64 1.33 -5.28 1.66 -8 2 C-8.33 2.99 -8.66 3.98 -9 5 C-6.525 5.495 -6.525 5.495 -4 6 C-4 6.66 -4 7.32 -4 8 C-3.34 8 -2.68 8 -2 8 C-2.33 9.65 -2.66 11.3 -3 13 C-22.05628848 7.91556728 -22.05628848 7.91556728 -26 2 C-17.9300122 -1.66817627 -8.60539245 -1.51859867 0 0 Z " fill="#235598" transform="translate(226,420)"/>
<path d="M0 0 C-3.47281559 0.9849372 -5.46153015 0.72377792 -9 0 C-13.85656109 -0.15417654 -18.21662721 0.04332544 -23 1 C-23.33 1.99 -23.66 2.98 -24 4 C-24.66 4 -25.32 4 -26 4 C-26.33 4.99 -26.66 5.98 -27 7 C-27.99 7 -28.98 7 -30 7 C-30.33634376 8.93697967 -30.66897165 10.87460486 -31 12.8125 C-31.185625 13.89144531 -31.37125 14.97039062 -31.5625 16.08203125 C-32.22556741 20.50445404 -31.69601333 24.29391584 -31 28.6875 C-30.814375 29.86699219 -30.62875 31.04648438 -30.4375 32.26171875 C-30.293125 33.16535156 -30.14875 34.06898438 -30 35 C-33.95534776 31.44018702 -35.66969058 28.48948996 -36.37109375 23.203125 C-36.55842609 14.87234576 -35.02455063 9.35213033 -29.3203125 3.18359375 C-20.63812139 -4.82331583 -10.34862578 -4.59938924 0 0 Z " fill="#55A5C7" transform="translate(239,164)"/>
<path d="M0 0 C3.40312738 1.05875074 6.01353231 2.00902154 9 4 C9 4.66 9 5.32 9 6 C9.66 6 10.32 6 11 6 C11 6.99 11 7.98 11 9 C11.99 9 12.98 9 14 9 C14 8.34 14 7.68 14 7 C15.32 7.33 16.64 7.66 18 8 C18 8.99 18 9.98 18 11 C17.67 11.33 17.34 11.66 17 12 C17.71027344 12.39832031 18.42054688 12.79664063 19.15234375 13.20703125 C20.53099609 14.00173828 20.53099609 14.00173828 21.9375 14.8125 C22.85402344 15.33457031 23.77054687 15.85664063 24.71484375 16.39453125 C27 18 27 18 28 21 C30.01508358 21.73323796 30.01508358 21.73323796 32 22 C32 23.32 32 24.64 32 26 C32.99 26.33 33.98 26.66 35 27 C35 27.66 35 28.32 35 29 C35.66 29 36.32 29 37 29 C37 29.99 37 30.98 37 32 C38.32 32 39.64 32 41 32 C42.66670026 35.52948291 43.13583456 37.28272326 42 41 C40.87064804 39.58680023 39.74669374 38.16928595 38.625 36.75 C37.99851562 35.96109375 37.37203125 35.1721875 36.7265625 34.359375 C35 32 35 32 34.0234375 29.828125 C32.69418612 27.45373704 31.45517233 27.13315646 29 26 C27.05161702 24.54143397 25.13680333 23.0373953 23.25 21.5 C22.26515625 20.7059375 21.2803125 19.911875 20.265625 19.09375 C19.51796875 18.4028125 18.7703125 17.711875 18 17 C18 16.34 18 15.68 18 15 C17.45859375 14.7628125 16.9171875 14.525625 16.359375 14.28125 C13.36749863 12.65652243 10.88840601 10.6498123 8.25 8.5 C7.26515625 7.7059375 6.2803125 6.911875 5.265625 6.09375 C4.51796875 5.4028125 3.7703125 4.711875 3 4 C3 3.34 3 2.68 3 2 C2.01 1.67 1.02 1.34 0 1 C0 0.67 0 0.34 0 0 Z " fill="#4AA1C8" transform="translate(267,250)"/>
<path d="M0 0 C0.99 0.33 1.98 0.66 3 1 C-2.67468811 7.63591078 -8.49615589 13.7196719 -15.375 19.125 C-15.95717285 19.58559814 -16.5393457 20.04619629 -17.13916016 20.52075195 C-20.28591401 22.93084847 -23.23390762 24.74463587 -27 26 C-27.33 25.01 -27.66 24.02 -28 23 C-27.01 23 -26.02 23 -25 23 C-24.95875 22.38125 -24.9175 21.7625 -24.875 21.125 C-24.58625 20.42375 -24.2975 19.7225 -24 19 C-23.0409375 18.7628125 -22.081875 18.525625 -21.09375 18.28125 C-17.7225687 17.28795876 -17.7225687 17.28795876 -16.5390625 13.9609375 C-16.23742187 12.77757812 -15.93578125 11.59421875 -15.625 10.375 C-15.30789063 9.18648438 -14.99078125 7.99796875 -14.6640625 6.7734375 C-14.44492187 5.85820312 -14.22578125 4.94296875 -14 4 C-13.01 4 -12.02 4 -11 4 C-10.34 5.32 -9.68 6.64 -9 8 C-8.54625 7.505 -8.0925 7.01 -7.625 6.5 C-6 5 -6 5 -4 5 C-4 4.34 -4 3.68 -4 3 C-2.1875 1.3125 -2.1875 1.3125 0 0 Z " fill="#28A1D6" transform="translate(339,394)"/>
<path d="M0 0 C0 0.66 0 1.32 0 2 C-0.66 2.33 -1.32 2.66 -2 3 C-1.505 4.98 -1.505 4.98 -1 7 C-3.31 7.66 -5.62 8.32 -8 9 C-8.33 10.98 -8.66 12.96 -9 15 C-10.010625 14.79375 -11.02125 14.5875 -12.0625 14.375 C-16.30638183 13.97082078 -18.96523413 14.78195747 -23 16 C-25.4375 15.625 -25.4375 15.625 -27 15 C-27.33 15.99 -27.66 16.98 -28 18 C-30.5625 19.1875 -30.5625 19.1875 -33 20 C-33 19.34 -33 18.68 -33 18 C-33.66 18.33 -34.32 18.66 -35 19 C-37.71760108 19.07181821 -40.40859388 19.09299506 -43.125 19.0625 C-43.87910156 19.05798828 -44.63320312 19.05347656 -45.41015625 19.04882812 C-47.27347127 19.03703499 -49.13674555 19.01909942 -51 19 C-51.33 18.34 -51.66 17.68 -52 17 C-45.73 17 -39.46 17 -33 17 C-33 16.34 -33 15.68 -33 15 C-32.28457031 14.86464844 -31.56914062 14.72929687 -30.83203125 14.58984375 C-21.23489565 12.51646517 -8.00303935 0 0 0 Z " fill="#494C82" transform="translate(297,375)"/>
<path d="M0 0 C0.99 0.33 1.98 0.66 3 1 C3.495 2.485 3.495 2.485 4 4 C1.52230118 4.79651177 -0.95701088 5.58726215 -3.4375 6.375 C-4.46907227 6.70757812 -4.46907227 6.70757812 -5.52148438 7.046875 C-7.67330456 7.72745069 -9.83228201 8.37196729 -12 9 C-12.66821777 9.19924072 -13.33643555 9.39848145 -14.02490234 9.60375977 C-21.19233993 11.48653183 -28.38569927 11.25767137 -35.75 11.1875 C-37.05066406 11.18685547 -38.35132813 11.18621094 -39.69140625 11.18554688 C-50.13840918 11.13713131 -50.13840918 11.13713131 -55 10 C-55 9.67 -55 9.34 -55 9 C-46.585 8.01 -46.585 8.01 -38 7 C-38 7.66 -38 8.32 -38 9 C-18.45980529 8.74652081 -18.45980529 8.74652081 -1.16796875 1.37109375 C-0.78253906 0.91863281 -0.39710938 0.46617187 0 0 Z " fill="#70B7CF" transform="translate(290,426)"/>
<path d="M0 0 C3.97876995 3.46333839 6.1138502 7.44917579 8.5 12.0625 C8.89582275 12.82111328 9.29164551 13.57972656 9.69946289 14.36132812 C14.99574732 24.68420417 19.94753935 36.15575806 19 48 C18.34 48.99 17.68 49.98 17 51 C16.92652344 49.95199219 16.92652344 49.95199219 16.8515625 48.8828125 C16.77679688 47.97273438 16.70203125 47.06265625 16.625 46.125 C16.55539062 45.22007812 16.48578125 44.31515625 16.4140625 43.3828125 C16.20431868 40.82058097 16.20431868 40.82058097 14 39 C13.63888935 37.13712761 13.35860169 35.25811569 13.125 33.375 C12.52640283 29.34895126 11.79983787 26.09212701 9.875 22.5 C8 19 8 19 8 15 C7.34 15 6.68 15 6 15 C5.896875 14.401875 5.79375 13.80375 5.6875 13.1875 C5.19319069 10.94788071 5.19319069 10.94788071 3.5625 9.75 C1.04422702 6.92953427 0.7800202 3.6600948 0 0 Z " fill="#569FC0" transform="translate(334,125)"/>
<path d="M0 0 C1.11375 0.350625 2.2275 0.70125 3.375 1.0625 C6.80264476 2.37239331 6.80264476 2.37239331 9 1 C10.7074998 2.28062485 12.37373596 3.61767557 14 5 C14 5.66 14 6.32 14 7 C14.66 7 15.32 7 16 7 C17.83984375 9.1953125 17.83984375 9.1953125 19.9375 12.125 C20.62714844 13.07632813 21.31679688 14.02765625 22.02734375 15.0078125 C27.15899218 22.79165943 27.15899218 22.79165943 26.6875 26.375 C26.3471875 27.179375 26.3471875 27.179375 26 28 C25.57589844 27.28714844 25.15179688 26.57429688 24.71484375 25.83984375 C18.60699262 15.86592421 11.78006511 9.62605941 2.37890625 2.8203125 C1.59386719 2.21960938 0.80882812 1.61890625 0 1 C0 0.67 0 0.34 0 0 Z " fill="#B4B0BC" transform="translate(277,137)"/>
<path d="M0 0 C3.92556988 7.49595445 4.35666664 14.75296014 4.3125 23.0625 C4.31121094 24.06804932 4.30992187 25.07359863 4.30859375 26.10961914 C4.202872 34.37639914 3.12005241 42.01194539 1 50 C0.34 49.34 -0.32 48.68 -1 48 C-0.7994654 46.35736815 -0.58503496 44.71519766 -0.29959106 43.08517456 C0.25974072 39.19218659 0.12119537 35.27304016 0.09765625 31.34765625 C0.0962413 30.44752304 0.09482635 29.54738983 0.09336853 28.61997986 C0.0878066 25.76745163 0.07526127 22.91500419 0.0625 20.0625 C0.05748008 18.11914176 0.05291803 16.17578229 0.04882812 14.23242188 C0.03784966 9.4882505 0.02061153 4.74413891 0 0 Z " fill="#4B99C0" transform="translate(362,302)"/>
<path d="M0 0 C0.33 0 0.66 0 1 0 C1.72734958 11.24967357 0.25238432 20.54944339 -4 31 C-4.66 31.66 -5.32 32.32 -6 33 C-6 29.72724974 -5.70074844 27.153368 -5 24 C-6.65 24 -8.3 24 -10 24 C-9.75 21.625 -9.75 21.625 -9 19 C-7 17.8125 -7 17.8125 -5 17 C-4.67 16.34 -4.34 15.68 -4 15 C-4.66 15 -5.32 15 -6 15 C-6 14.34 -6 13.68 -6 13 C-5.34 13 -4.68 13 -4 13 C-4 12.01 -4 11.02 -4 10 C-3.34 10 -2.68 10 -2 10 C-2 8.68 -2 7.36 -2 6 C-1.34 6 -0.68 6 0 6 C0 4.02 0 2.04 0 0 Z " fill="#1A3473" transform="translate(318,343)"/>
<path d="M0 0 C0.82062424 0.00015106 1.64124847 0.00030212 2.48674011 0.00045776 C3.80875175 0.01594162 3.80875175 0.01594162 5.1574707 0.03173828 C6.5161602 0.03598312 6.5161602 0.03598312 7.90229797 0.04031372 C10.79608353 0.05151114 13.6895599 0.07661489 16.58325195 0.10205078 C18.54483603 0.11208115 20.50642495 0.1212069 22.46801758 0.12939453 C27.27738155 0.15144905 32.08651432 0.18597589 36.89575195 0.22705078 C36.89575195 0.55705078 36.89575195 0.88705078 36.89575195 1.22705078 C35.86168213 1.25210693 34.8276123 1.27716309 33.76220703 1.30297852 C29.91361808 1.39738508 26.06519567 1.49752369 22.21679688 1.59936523 C20.55342514 1.64258862 18.89001263 1.68427224 17.2265625 1.72436523 C14.83101127 1.7823741 12.43566287 1.84597907 10.0402832 1.91064453 C9.30050735 1.92735703 8.56073151 1.94406952 7.79853821 1.96128845 C4.05929264 2.06777838 0.53636651 2.3489283 -3.10424805 3.22705078 C-3.00885742 4.46841797 -2.9134668 5.70978516 -2.81518555 6.98876953 C-2.70259911 8.63065509 -2.59065361 10.27258468 -2.47924805 11.91455078 C-2.41479492 12.73117187 -2.3503418 13.54779297 -2.28393555 14.38916016 C-1.99442235 18.85852012 -1.93028584 22.15294604 -4.10424805 26.22705078 C-4.43424805 26.22705078 -4.76424805 26.22705078 -5.10424805 26.22705078 C-8.2126366 8.77011866 -8.2126366 8.77011866 -7.10424805 2.22705078 C-4.03653614 0.18190951 -3.44856757 -0.02122195 0 0 Z " fill="#8FBDD5" transform="translate(148.104248046875,323.77294921875)"/>
<path d="M0 0 C2 2 2 2 2.24291992 4.24316406 C2.23675659 5.61553223 2.23675659 5.61553223 2.23046875 7.015625 C2.22853516 8.01980469 2.22660156 9.02398437 2.22460938 10.05859375 C2.21236328 11.11175781 2.20011719 12.16492188 2.1875 13.25 C2.18685547 14.28769531 2.18621094 15.32539063 2.18554688 16.39453125 C2.15698641 21.36405148 2.05192464 26.11906965 1 31 C0.34 31 -0.32 31 -1 31 C-1.33 30.34 -1.66 29.68 -2 29 C-2.66 29 -3.32 29 -4 29 C-4 30.32 -4 31.64 -4 33 C-4.66 33 -5.32 33 -6 33 C-6 33.99 -6 34.98 -6 36 C-6.66 36 -7.32 36 -8 36 C-7.5875 34.88625 -7.175 33.7725 -6.75 32.625 C-5.14678049 27.81534146 -3.98530325 22.94135879 -2.875 18 C-2.70452148 17.25314941 -2.53404297 16.50629883 -2.35839844 15.73681641 C-1.20956919 10.505418 -0.51830276 5.33111408 0 0 Z " fill="#21648E" transform="translate(320,320)"/>
<path d="M0 0 C0.33 0 0.66 0 1 0 C1.24887295 2.10192697 1.4734719 4.20673964 1.6875 6.3125 C1.81511719 7.48425781 1.94273437 8.65601563 2.07421875 9.86328125 C2 13 2 13 0.75563049 14.67277527 C-1.39694338 16.30008198 -2.4878038 16.37461141 -5.16430664 16.37231445 C-6.41559105 16.38165764 -6.41559105 16.38165764 -7.69215393 16.39118958 C-8.5890947 16.38197983 -9.48603546 16.37277008 -10.41015625 16.36328125 C-11.33340195 16.36377975 -12.25664764 16.36427826 -13.20787048 16.36479187 C-15.1588659 16.36245179 -17.10986436 16.35272717 -19.06079102 16.33618164 C-22.05447228 16.31256333 -25.04726473 16.31562432 -28.04101562 16.32226562 C-29.93490117 16.31668981 -31.82878294 16.30958054 -33.72265625 16.30078125 C-34.62162125 16.30169266 -35.52058624 16.30260406 -36.4467926 16.30354309 C-37.27783005 16.29401108 -38.10886749 16.28447906 -38.96508789 16.2746582 C-39.69772354 16.27005081 -40.43035919 16.26544342 -41.18519592 16.26069641 C-43 16 -43 16 -45 14 C-30.48 14 -15.96 14 -1 14 C-0.67 9.38 -0.34 4.76 0 0 Z " fill="#85CCDA" transform="translate(353,173)"/>
<path d="M0 0 C1.32 0.33 2.64 0.66 4 1 C0.54996751 10.90603389 -9.60516081 17.31638295 -18 23 C-18.99 23.33 -19.98 23.66 -21 24 C-20.505 22.515 -20.505 22.515 -20 21 C-19.01 21 -18.02 21 -17 21 C-17 20.34 -17 19.68 -17 19 C-15.68 18.67 -14.36 18.34 -13 18 C-12.773125 16.906875 -12.54625 15.81375 -12.3125 14.6875 C-10.78487318 10.39559608 -9.84997889 10.06584233 -6 8 C-4.96642853 6.35394174 -3.95939668 4.69036558 -3 3 C-2.34 3 -1.68 3 -1 3 C-0.67 2.01 -0.34 1.02 0 0 Z " fill="#19407F" transform="translate(293,401)"/>
<path d="M0 0 C4.36110798 3.88922544 6.71492199 7.80405436 9.1875 13.0625 C9.52974609 13.76955078 9.87199219 14.47660156 10.22460938 15.20507812 C10.8771585 16.55452438 11.52461267 17.90645085 12.16601562 19.26123047 C12.82299078 20.63095442 13.51968585 21.98162882 14.23046875 23.32421875 C15.27238913 25.59317226 15.13676654 27.5382023 15 30 C12.68011136 27.79124375 10.7697299 25.45526032 8.875 22.875 C7.0575137 20.33497993 7.0575137 20.33497993 5 18 C4.92820036 16.48071962 4.91607993 14.95832518 4.9375 13.4375 C4.94652344 12.61121094 4.95554687 11.78492188 4.96484375 10.93359375 C4.97644531 10.29550781 4.98804688 9.65742188 5 9 C4.34 9 3.68 9 3 9 C0 3.2 0 3.2 0 0 Z " fill="#1A336B" transform="translate(288,128)"/>
<path d="M0 0 C1.01578125 0.54269531 2.0315625 1.08539063 3.078125 1.64453125 C18.43714013 9.70205782 31.77616492 11.56190077 49 12 C49 12.33 49 12.66 49 13 C48.16021606 13.03758423 48.16021606 13.03758423 47.3034668 13.07592773 C44.76458695 13.19203745 42.22606447 13.3146958 39.6875 13.4375 C38.36588867 13.49647461 38.36588867 13.49647461 37.01757812 13.55664062 C35.74624023 13.61948242 35.74624023 13.61948242 34.44921875 13.68359375 C33.66893311 13.72025146 32.88864746 13.75690918 32.0847168 13.79467773 C29.80670899 13.94125263 29.80670899 13.94125263 27 15 C24.95703125 14.44140625 24.95703125 14.44140625 22.8125 13.5625 C22.09707031 13.27503906 21.38164062 12.98757813 20.64453125 12.69140625 C20.10183594 12.46324219 19.55914062 12.23507812 19 12 C19 11.34 19 10.68 19 10 C18.01 10.33 17.02 10.66 16 11 C9.28421053 8.56842105 9.28421053 8.56842105 8 6 C5.47266765 5.34444881 5.47266765 5.34444881 3 5 C3 4.34 3 3.68 3 3 C1.68 3.33 0.36 3.66 -1 4 C-0.67 2.68 -0.34 1.36 0 0 Z " fill="#5E84AF" transform="translate(215,379)"/>
<path d="M0 0 C0.66 0 1.32 0 2 0 C2.66 0.66 3.32 1.32 4 2 C4.66 2 5.32 2 6 2 C6.33 2.99 6.66 3.98 7 5 C6.34 5 5.68 5 5 5 C5.15597656 5.65226562 5.31195313 6.30453125 5.47265625 6.9765625 C6.58490411 11.97062904 7.3320153 15.93834187 6 21 C3.29517875 18.29517875 2.4923264 15.17456319 1.3125 11.625 C1.07466797 10.95210938 0.83683594 10.27921875 0.59179688 9.5859375 C-1.46407193 3.46053366 -1.46407193 3.46053366 0 0 Z " fill="#3088C2" transform="translate(145,349)"/>
<path d="M0 0 C0.99 0 1.98 0 3 0 C2.9278125 0.61488281 2.855625 1.22976562 2.78125 1.86328125 C2.6884375 2.67152344 2.595625 3.47976562 2.5 4.3125 C2.4071875 5.11300781 2.314375 5.91351563 2.21875 6.73828125 C1.81844032 10.87719742 2.35182315 14.59588364 3 18.6875 C3.185625 19.86699219 3.37125 21.04648438 3.5625 22.26171875 C3.706875 23.16535156 3.85125 24.06898438 4 25 C-0.02019191 21.38182728 -1.78130848 18.44741539 -2.265625 13.02734375 C-2.26046875 12.00769531 -2.2553125 10.98804688 -2.25 9.9375 C-2.25515625 8.91527344 -2.2603125 7.89304688 -2.265625 6.83984375 C-2.00365182 4.0390422 -1.44074562 2.38409096 0 0 Z " fill="#56A1CB" transform="translate(205,174)"/>
<path d="M0 0 C2.27464862 5.74941861 -1.73642189 11.71410251 -4 17 C-6.16277495 21.88569306 -8.49983025 25.91646863 -12 30 C-12.66 30.99 -13.32 31.98 -14 33 C-15 30 -15 30 -14.25 27.94140625 C-13.8375 27.15636719 -13.425 26.37132812 -13 25.5625 C-12.53851563 24.67949219 -12.07703125 23.79648437 -11.6015625 22.88671875 C-9.91523181 19.84721051 -8.1538543 16.86120435 -6.375 13.875 C-3.68374915 9.33681229 -1.63750478 5.00883815 0 0 Z " fill="#2F96C4" transform="translate(313,374)"/>
<path d="M0 0 C0.33 0 0.66 0 1 0 C0.58149491 6.30268671 -1.63464339 10.58127314 -4.875 15.9375 C-5.32230469 16.71673828 -5.76960938 17.49597656 -6.23046875 18.29882812 C-8.75594378 22.54892696 -8.75594378 22.54892696 -10 24 C-10.99 24 -11.98 24 -13 24 C-13 21.03 -13 18.06 -13 15 C-12.278125 15.165 -11.55625 15.33 -10.8125 15.5 C-7.978701 15.29925526 -7.978701 15.29925526 -6.66015625 13.46484375 C-3.94448629 9.18085375 -1.8637839 4.70850669 0 0 Z " fill="#163977" transform="translate(310,377)"/>
<path d="M0 0 C4.31459911 2.73811097 8.00213624 5.68293679 11.75 9.1875 C15.11030173 12.47154311 15.11030173 12.47154311 19 15 C19 15.66 19 16.32 19 17 C19.66 17.33 20.32 17.66 21 18 C19.25 18.75 19.25 18.75 17 19 C14.9375 17.125 14.9375 17.125 13 15 C12.01 14.67 11.02 14.34 10 14 C10 12.68 10 11.36 10 10 C8.35 9.67 6.7 9.34 5 9 C5 8.01 5 7.02 5 6 C4.360625 5.7525 3.72125 5.505 3.0625 5.25 C1 4 1 4 0.25 1.875 C0.1675 1.25625 0.085 0.6375 0 0 Z " fill="#46A2CB" transform="translate(287,207)"/>
<path d="M0 0 C2.64 0 5.28 0 8 0 C8 1.32 8 2.64 8 4 C8.66 4 9.32 4 10 4 C10.12375 4.928125 10.12375 4.928125 10.25 5.875 C10.79326091 8.16669871 10.79326091 8.16669871 12.9375 9.0625 C13.618125 9.371875 14.29875 9.68125 15 10 C15.99 11.485 15.99 11.485 17 13 C18.63495707 14.05104383 20.29883624 15.05988318 22 16 C21.67 16.99 21.34 17.98 21 19 C20.56131592 18.61666504 20.12263184 18.23333008 19.6706543 17.83837891 C17.67783694 16.09878084 15.68269819 14.36186674 13.6875 12.625 C12.99720703 12.02171875 12.30691406 11.4184375 11.59570312 10.796875 C10.92861328 10.21679688 10.26152344 9.63671875 9.57421875 9.0390625 C8.65515747 8.23782959 8.65515747 8.23782959 7.7175293 7.42041016 C5.84599564 5.8230795 5.84599564 5.8230795 3 4 C3 3.34 3 2.68 3 2 C2.01 1.67 1.02 1.34 0 1 C0 0.67 0 0.34 0 0 Z " fill="#5EA9CA" transform="translate(213,203)"/>
<path d="M0 0 C0 3.38023517 -0.87455622 5.83468937 -2 9 C-2.66 9 -3.32 9 -4 9 C-4.33 9.99 -4.66 10.98 -5 12 C-5.66 12 -6.32 12 -7 12 C-7.33 14.31 -7.66 16.62 -8 19 C-8.33 18.01 -8.66 17.02 -9 16 C-10.32 16 -11.64 16 -13 16 C-11.43636055 12.34584258 -9.17824958 9.7880312 -6.5 6.875 C-5.7059375 6.00617188 -4.911875 5.13734375 -4.09375 4.2421875 C-2.75256247 2.80591578 -1.38954317 1.38954317 0 0 Z " fill="#4E4F82" transform="translate(167,106)"/>
<path d="M0 0 C1.17219543 0.78345715 2.33763668 1.57702836 3.5 2.375 C4.47453125 3.03628906 4.47453125 3.03628906 5.46875 3.7109375 C5.9740625 4.13632813 6.479375 4.56171875 7 5 C7 5.66 7 6.32 7 7 C7.57234375 7.25523437 8.1446875 7.51046875 8.734375 7.7734375 C11.24173733 9.13087159 13.1330456 10.71974104 15.25 12.625 C15.95640625 13.25664062 16.6628125 13.88828125 17.390625 14.5390625 C17.92171875 15.02117187 18.4528125 15.50328125 19 16 C16 17 16 17 13.8125 16.0625 C13.214375 15.711875 12.61625 15.36125 12 15 C12 14.34 12 13.68 12 13 C11.1028125 12.8453125 11.1028125 12.8453125 10.1875 12.6875 C7.69130983 11.90298309 6.74268135 10.90110692 5 9 C4.34 8.67 3.68 8.34 3 8 C2.67 7.01 2.34 6.02 2 5 C1.34 4.67 0.68 4.34 0 4 C0 2.68 0 1.36 0 0 Z " fill="#51A4CA" transform="translate(260,183)"/>
<path d="M0 0 C0 0.66 0 1.32 0 2 C5.28 2 10.56 2 16 2 C16 2.33 16 2.66 16 3 C9.37250143 3.8015981 2.79454701 4.10774931 -3.875 4.125 C-4.96252563 4.13176758 -4.96252563 4.13176758 -6.07202148 4.13867188 C-9.83982356 4.12819727 -13.33756348 3.90483726 -17 3 C-17 2.67 -17 2.34 -17 2 C-14.91727106 1.66291092 -12.83378963 1.33046884 -10.75 1 C-9.58984375 0.814375 -8.4296875 0.62875 -7.234375 0.4375 C-4 0 -4 0 0 0 Z " fill="#5CA9C8" transform="translate(252,433)"/>
<path d="M0 0 C2.875 0.3125 2.875 0.3125 6 1 C6.66 1.99 7.32 2.98 8 4 C9.32 4 10.64 4 12 4 C12.99 5.98 13.98 7.96 15 10 C15.99 10 16.98 10 18 10 C17.67 11.65 17.34 13.3 17 15 C11.02320179 10.70061382 5.29045116 6.13124776 0 1 C0 0.67 0 0.34 0 0 Z " fill="#4C497E" transform="translate(205,302)"/>
<path d="M0 0 C2.475 0.495 2.475 0.495 5 1 C5 1.66 5 2.32 5 3 C6.32 3 7.64 3 9 3 C9 3.66 9 4.32 9 5 C9.99 4.7215625 9.99 4.7215625 11 4.4375 C14.89330114 3.86972692 18.11375479 4.40718293 22 5 C21.67 6.65 21.34 8.3 21 10 C13.63011293 8.033631 6.86954798 5.30417422 0 2 C0 1.34 0 0.68 0 0 Z " fill="#446098" transform="translate(202,423)"/>
<path d="M0 0 C0.33 0.66 0.66 1.32 1 2 C1.66 2 2.32 2 3 2 C2.34 3.32 1.68 4.64 1 6 C0.01 6 -0.98 6 -2 6 C-2.0825 6.9075 -2.165 7.815 -2.25 8.75 C-3.10189036 12.44152488 -4.20680963 13.55595843 -7 16 C-7.33 16.66 -7.66 17.32 -8 18 C-11.0625 18.625 -11.0625 18.625 -14 19 C-13.175 18.0925 -12.35 17.185 -11.5 16.25 C-7.14755542 11.19991478 -3.61517748 5.58792661 0 0 Z " fill="#555387" transform="translate(311,356)"/>
<path d="M0 0 C0.76957031 0.24363281 0.76957031 0.24363281 1.5546875 0.4921875 C4.77574185 1.16109655 7.8371999 1.13186388 11.125 1.125 C12.36507813 1.12757813 13.60515625 1.13015625 14.8828125 1.1328125 C17.90723573 1.21668811 17.90723573 1.21668811 20 0 C20.66 0.66 21.32 1.32 22 2 C16.05540106 5.17045277 10.70023737 5.76094141 4 5 C1.1640625 3.98046875 1.1640625 3.98046875 -1 3 C-0.67 2.01 -0.34 1.02 0 0 Z " fill="#5E5D8A" transform="translate(260,346)"/>
<path d="M0 0 C-1.52977276 4.00999606 -4.01531782 5.82653233 -7.4375 8.3125 C-8.40558594 9.03050781 -9.37367188 9.74851562 -10.37109375 10.48828125 C-11.23863281 10.98714844 -12.10617187 11.48601562 -13 12 C-13.99 11.67 -14.98 11.34 -16 11 C-16 10.34 -16 9.68 -16 9 C-15.01 9 -14.02 9 -13 9 C-12.95875 8.38125 -12.9175 7.7625 -12.875 7.125 C-12.58625 6.42375 -12.2975 5.7225 -12 5 C-9 3.875 -9 3.875 -6 3 C-5.67 2.34 -5.34 1.68 -5 1 C-2 0 -2 0 0 0 Z " fill="#489BBA" transform="translate(327,408)"/>
<path d="M0 0 C4.1486896 3.55873833 6.28855985 7.84643866 8.75 12.625 C9.16121094 13.40101563 9.57242187 14.17703125 9.99609375 14.9765625 C13 20.72490137 13 20.72490137 13 23 C12.01 23 11.02 23 10 23 C8.23537317 19.91190305 8 18.76687864 8 15 C7.34 15 6.68 15 6 15 C5.896875 14.401875 5.79375 13.80375 5.6875 13.1875 C5.19319069 10.94788071 5.19319069 10.94788071 3.5625 9.75 C1.04422702 6.92953427 0.7800202 3.6600948 0 0 Z " fill="#4C9EC4" transform="translate(334,125)"/>
<path d="M0 0 C0.99 0.33 1.98 0.66 3 1 C3 2.32 3 3.64 3 5 C-1.62369023 6.80679587 -5.42528653 7.21839082 -10.375 7.125 C-11.62023437 7.10695313 -12.86546875 7.08890625 -14.1484375 7.0703125 C-15.55996094 7.03550781 -15.55996094 7.03550781 -17 7 C-17 6.34 -17 5.68 -17 5 C-16.07767578 5.01740234 -16.07767578 5.01740234 -15.13671875 5.03515625 C-13.92435547 5.04869141 -13.92435547 5.04869141 -12.6875 5.0625 C-11.88699219 5.07410156 -11.08648437 5.08570313 -10.26171875 5.09765625 C-7.83138666 5.09657855 -7.83138666 5.09657855 -5 4 C-5 3.34 -5 2.68 -5 2 C-3.35 2 -1.7 2 0 2 C0 1.34 0 0.68 0 0 Z " fill="#3BC3E5" transform="translate(269,428)"/>
<path d="M0 0 C2.4320057 1.21600285 4.7272325 2.50475822 7 4 C7 4.66 7 5.32 7 6 C7.66 6 8.32 6 9 6 C9 6.66 9 7.32 9 8 C9.66 8 10.32 8 11 8 C11.66 9.65 12.32 11.3 13 13 C13.66 13 14.32 13 15 13 C14.67 13.99 14.34 14.98 14 16 C12.08228343 14.25113898 10.16580317 12.50095499 8.25 10.75 C7.71117187 10.25886719 7.17234375 9.76773438 6.6171875 9.26171875 C3.6756284 6.57126836 0.7926232 3.8468489 -2 1 C-1.34 0.67 -0.68 0.34 0 0 Z " fill="#59AACD" transform="translate(237,221)"/>
<path d="M0 0 C-0.75 1.9375 -0.75 1.9375 -2 4 C-3.32594105 4.36162029 -4.65938457 4.69728039 -6 5 C-6.33 5.99 -6.66 6.98 -7 8 C-8.32 8 -9.64 8 -11 8 C-13.25065102 9.91666921 -13.25065102 9.91666921 -15 12 C-15.66 11.34 -16.32 10.68 -17 10 C-15.3970551 8.70681744 -13.79259858 7.41550844 -12.1875 6.125 C-11.29417969 5.40570313 -10.40085938 4.68640625 -9.48046875 3.9453125 C-4.4497992 0 -4.4497992 0 0 0 Z " fill="#3C3F75" transform="translate(185,95)"/>
<path d="M0 0 C0.33 0.66 0.66 1.32 1 2 C1.66 2 2.32 2 3 2 C3.33 3.98 3.66 5.96 4 8 C4.66 8 5.32 8 6 8 C6.11381955 14.76594019 5.88021369 21.28837062 5 28 C4.67 28 4.34 28 4 28 C3.96261719 27.11699219 3.92523438 26.23398437 3.88671875 25.32421875 C3.50219584 18.30479079 2.72563973 11.92345312 0.62109375 5.20703125 C0 3 0 3 0 0 Z " fill="#5AA2C6" transform="translate(315,301)"/>
<path d="M0 0 C5.37211997 1.49978744 9.69317779 4.00395317 14.375 6.9375 C15.11105469 7.38029297 15.84710938 7.82308594 16.60546875 8.27929688 C17.30027344 8.71177734 17.99507813 9.14425781 18.7109375 9.58984375 C19.34306152 9.98034912 19.97518555 10.37085449 20.62646484 10.77319336 C21.07973145 11.17803955 21.53299805 11.58288574 22 12 C22 12.99 22 13.98 22 15 C21.67 14.34 21.34 13.68 21 13 C18.47266765 12.34444881 18.47266765 12.34444881 16 12 C15.67 11.01 15.34 10.02 15 9 C12.69 8.67 10.38 8.34 8 8 C7.67 6.68 7.34 5.36 7 4 C4.03 3.505 4.03 3.505 1 3 C0.67 2.01 0.34 1.02 0 0 Z " fill="#5FA7CB" transform="translate(289,87)"/>
<path d="M0 0 C4.11842473 2.26626297 7.37138642 4.99514161 10.8125 8.1875 C11.31458984 8.65091797 11.81667969 9.11433594 12.33398438 9.59179688 C13.55956829 10.72400297 14.78029342 11.86146479 16 13 C14 14 14 14 11.125 13.375 C7.55035882 11.80215788 6.24641149 10.12893029 4 7 C3.34 6.67 2.68 6.34 2 6 C2 4.68 2 3.36 2 2 C1.34 2 0.68 2 0 2 C0 1.34 0 0.68 0 0 Z " fill="#4B4D7A" transform="translate(238,270)"/>
<path d="M0 0 C1.98 0.99 1.98 0.99 4 2 C4 2.66 4 3.32 4 4 C4.56203125 4.24492187 5.1240625 4.48984375 5.703125 4.7421875 C8.41865854 6.22926539 10.46391438 8.04062782 12.75 10.125 C13.94882812 11.21167969 13.94882812 11.21167969 15.171875 12.3203125 C15.77515625 12.87460938 16.3784375 13.42890625 17 14 C15.02 14.99 15.02 14.99 13 16 C13 14.68 13 13.36 13 12 C10.03 11.505 10.03 11.505 7 11 C6.67 10.01 6.34 9.02 6 8 C4.67151309 6.99357052 3.33849671 5.99307821 2 5 C2 4.34 2 3.68 2 3 C1.34 3 0.68 3 0 3 C0 2.01 0 1.02 0 0 Z " fill="#5FADCC" transform="translate(317,233)"/>
<path d="M0 0 C0.99 0.33 1.98 0.66 3 1 C3.33 2.98 3.66 4.96 4 7 C4.99 7.33 5.98 7.66 7 8 C8.203125 10.43359375 8.203125 10.43359375 9.25 13.4375 C9.78367188 14.92056641 9.78367188 14.92056641 10.328125 16.43359375 C11 19 11 19 10 21 C4.47231391 14.68264446 1.74084963 8.12396494 0 0 Z " fill="#B4B2C5" transform="translate(179,205)"/>
<path d="M0 0 C-1.25541557 2.51083114 -2.50063488 2.87125446 -5 4 C-5 3.34 -5 2.68 -5 2 C-5.99 2.495 -5.99 2.495 -7 3 C-9.71760108 3.07181821 -12.40859388 3.09299506 -15.125 3.0625 C-15.87910156 3.05798828 -16.63320312 3.05347656 -17.41015625 3.04882812 C-19.27347127 3.03703499 -21.13674555 3.01909942 -23 3 C-23.33 2.34 -23.66 1.68 -24 1 C-20.93758173 0.83170223 -17.87508013 0.66530338 -14.8125 0.5 C-13.94818359 0.45230469 -13.08386719 0.40460938 -12.19335938 0.35546875 C-8.12442913 0.13721196 -4.07665227 -0.06752219 0 0 Z " fill="#264885" transform="translate(269,391)"/>
<path d="M0 0 C3.5991308 5.3986962 4.26122419 10.6000073 4 17 C2.68 17.33 1.36 17.66 0 18 C0 12.06 0 6.12 0 0 Z " fill="#1583AE" transform="translate(322,326)"/>
<path d="M0 0 C-8.52335895 5.34619289 -16.98814921 7.61269436 -27 8 C-23.43478915 6.05090979 -20.08233126 5.31065953 -16.12109375 4.5625 C-13.72346278 4.04883659 -13.72346278 4.04883659 -11 2 C-9.49686689 1.39178036 -7.97377605 0.83134117 -6.4375 0.3125 C-5.65246094 0.04050781 -4.86742187 -0.23148437 -4.05859375 -0.51171875 C-2 -1 -2 -1 0 0 Z " fill="#144B88" transform="translate(270,426)"/>
<path d="M0 0 C9.57 0.33 19.14 0.66 29 1 C29 1.33 29 1.66 29 2 C28.44014404 2.02505615 27.88028809 2.0501123 27.3034668 2.07592773 C24.76458695 2.19203745 22.22606447 2.3146958 19.6875 2.4375 C18.80642578 2.47681641 17.92535156 2.51613281 17.01757812 2.55664062 C16.17001953 2.59853516 15.32246094 2.64042969 14.44921875 2.68359375 C13.27879028 2.73858032 13.27879028 2.73858032 12.0847168 2.79467773 C9.80670899 2.94125263 9.80670899 2.94125263 7 4 C4.64811553 3.40206327 2.31074405 2.74118205 0 2 C0 1.34 0 0.68 0 0 Z " fill="#5A75A5" transform="translate(235,390)"/>
<path d="M0 0 C0.66 0.33 1.32 0.66 2 1 C1.67 4.63 1.34 8.26 1 12 C0.34 12 -0.32 12 -1 12 C-1.33 12.66 -1.66 13.32 -2 14 C-3.32 14 -4.64 14 -6 14 C-5.75 11.625 -5.75 11.625 -5 9 C-3 7.8125 -3 7.8125 -1 7 C-0.67 6.34 -0.34 5.68 0 5 C-0.66 5 -1.32 5 -2 5 C-2 4.34 -2 3.68 -2 3 C-1.34 3 -0.68 3 0 3 C0 2.01 0 1.02 0 0 Z " fill="#272A70" transform="translate(314,353)"/>
<path d="M0 0 C0.33 0 0.66 0 1 0 C1.33 4.62 1.66 9.24 2 14 C0.68 14 -0.64 14 -2 14 C-2 15.32 -2 16.64 -2 18 C-2.66 18 -3.32 18 -4 18 C-4 18.99 -4 19.98 -4 21 C-4.66 21 -5.32 21 -6 21 C-5.566875 19.7625 -5.13375 18.525 -4.6875 17.25 C-2.78947104 11.58302782 -1.38609152 5.80978785 0 0 Z " fill="#606A94" transform="translate(318,335)"/>
<path d="M0 0 C1.32 0.33 2.64 0.66 4 1 C2.92598892 3.91517292 2.22189824 5.77810176 0 8 C-1.32 8 -2.64 8 -4 8 C-4 8.66 -4 9.32 -4 10 C-4.99 9.67 -5.98 9.34 -7 9 C-6.525625 8.566875 -6.05125 8.13375 -5.5625 7.6875 C-3.76313043 5.97690387 -3.76313043 5.97690387 -3 3 C-2.34 3 -1.68 3 -1 3 C-0.67 2.01 -0.34 1.02 0 0 Z " fill="#1D3175" transform="translate(293,401)"/>
<path d="M0 0 C0.99 0.33 1.98 0.66 3 1 C-0.63 4.96 -4.26 8.92 -8 13 C-8.66 12.01 -9.32 11.02 -10 10 C-8.71937515 8.2925002 -7.38232443 6.62626404 -6 5 C-5.34 5 -4.68 5 -4 5 C-4 4.34 -4 3.68 -4 3 C-2.1875 1.3125 -2.1875 1.3125 0 0 Z " fill="#58AACE" transform="translate(339,394)"/>
<path d="M0 0 C0.66 0 1.32 0 2 0 C2.31465522 5.97844919 1.6020798 9.49560042 -1 15 C-1.74989986 17.3178723 -2.37494665 19.6440297 -3 22 C-3.66 22 -4.32 22 -5 22 C-4.70996094 21.00033203 -4.70996094 21.00033203 -4.4140625 19.98046875 C-2.5458986 13.36790841 -1.11457034 6.77921021 0 0 Z " fill="#2B80B0" transform="translate(319,351)"/>
<path d="M0 0 C0.33 1.32 0.66 2.64 1 4 C1.66 4 2.32 4 3 4 C1.64458676 8.06623972 -0.57009469 9.53046818 -4 12 C-4.99 11.67 -5.98 11.34 -7 11 C-4.69 7.37 -2.38 3.74 0 0 Z " fill="#AFB3C0" transform="translate(191,146)"/>
<path d="M0 0 C1.0625 1.875 1.0625 1.875 2 4 C0.68502894 6.62994212 -0.47823592 7.44814518 -3 9 C-5.65076313 9.82614606 -8.28081004 10.41084218 -11 11 C-7.33333333 7.33333333 -3.66666667 3.66666667 0 0 Z " fill="#3A94C5" transform="translate(294,407)"/>
<path d="M0 0 C1.4800841 0.11362262 2.95910074 0.24122908 4.4375 0.375 C5.26121094 0.44460938 6.08492187 0.51421875 6.93359375 0.5859375 C7.95646484 0.79089844 7.95646484 0.79089844 9 1 C9.33 1.66 9.66 2.32 10 3 C9.67 3.99 9.34 4.98 9 6 C9.99 6.33 10.98 6.66 12 7 C11.67 7.66 11.34 8.32 11 9 C8.05043472 7.63055898 5.47531189 6.12169591 3 4 C3 3.34 3 2.68 3 2 C2.01 1.67 1.02 1.34 0 1 C0 0.67 0 0.34 0 0 Z " fill="#595986" transform="translate(172,274)"/>
<path d="M0 0 C1.17747733 3.62163482 1.00572441 6.84880295 0.75 10.625 C0.68296875 11.77226562 0.6159375 12.91953125 0.546875 14.1015625 C0.36640625 15.05804688 0.1859375 16.01453125 0 17 C-0.99 17.66 -1.98 18.32 -3 19 C-3.38614349 12.1781317 -2.00865708 6.50422293 0 0 Z " fill="#616287" transform="translate(135,158)"/>
<path d="M0 0 C-0.75925781 0.54269531 -1.51851562 1.08539063 -2.30078125 1.64453125 C-3.29464844 2.35996094 -4.28851563 3.07539063 -5.3125 3.8125 C-6.29863281 4.52019531 -7.28476563 5.22789062 -8.30078125 5.95703125 C-10.93281129 7.84588402 -10.93281129 7.84588402 -12.73046875 9.76171875 C-14 11 -14 11 -16 11 C-16.33 10.01 -16.66 9.02 -17 8 C-15.71186658 7.16121545 -14.41936744 6.32913217 -13.125 5.5 C-12.40570313 5.0359375 -11.68640625 4.571875 -10.9453125 4.09375 C-9 3 -9 3 -7 3 C-6.67 2.01 -6.34 1.02 -6 0 C-3 -1 -3 -1 0 0 Z " fill="#2F3269" transform="translate(210,131)"/>
<path d="M0 0 C3.71888239 0.50712033 6.73454239 1.11608215 10 3 C6.375 6 6.375 6 3 6 C0.8125 4.5 0.8125 4.5 -1 3 C-0.67 2.01 -0.34 1.02 0 0 Z " fill="#3A6DA0" transform="translate(195,417)"/>
<path d="M0 0 C3.10190545 4.65285818 4.33846504 9.41532676 4 15 C3.01 15 2.02 15 1 15 C0.690625 14.21625 0.38125 13.4325 0.0625 12.625 C-0.92875038 10.07669872 -0.92875038 10.07669872 -2 8 C-1.66015625 6.0546875 -1.66015625 6.0546875 -1.0625 3.875 C-0.86785156 3.15054687 -0.67320312 2.42609375 -0.47265625 1.6796875 C-0.31667969 1.12539063 -0.16070312 0.57109375 0 0 Z " fill="#50A4D0" transform="translate(360,291)"/>
<path d="M0 0 C4.81509796 2.54916951 8.21422655 5.02008432 12 9 C13.96561064 10.71288928 15.97747627 12.35375976 18 14 C17.67 14.66 17.34 15.32 17 16 C16.38511719 15.51789063 15.77023437 15.03578125 15.13671875 14.5390625 C14.32847656 13.90742187 13.52023437 13.27578125 12.6875 12.625 C11.88699219 11.99851562 11.08648437 11.37203125 10.26171875 10.7265625 C8.55336788 9.42243282 6.78827274 8.19218183 5 7 C5 6.34 5 5.68 5 5 C4.01 4.67 3.02 4.34 2 4 C2 3.34 2 2.68 2 2 C1.34 2 0.68 2 0 2 C0 1.34 0 0.68 0 0 Z " fill="#0E3870" transform="translate(264,104)"/>
<path d="M0 0 C0 0.66 0 1.32 0 2 C-0.66 2 -1.32 2 -2 2 C-1.67 2.99 -1.34 3.98 -1 5 C-3.97 4.505 -3.97 4.505 -7 4 C-7 4.66 -7 5.32 -7 6 C-10.78187881 7.83691257 -12.94568308 8.15837626 -17 7 C-14.03171001 5.02114001 -11.22552946 3.74135003 -7.9375 2.375 C-6.87402344 1.92898438 -5.81054688 1.48296875 -4.71484375 1.0234375 C-2 0 -2 0 0 0 Z " fill="#3CADD7" transform="translate(271,426)"/>
<path d="M0 0 C0.66 0 1.32 0 2 0 C1.39733215 4.50727647 -0.36599794 7.8587963 -2.5625 11.8125 C-3.0565332 12.7087207 -3.0565332 12.7087207 -3.56054688 13.62304688 C-4.36773267 15.08533998 -5.18304917 16.5431399 -6 18 C-6.609375 16.20703125 -6.609375 16.20703125 -7 14 C-6.08607501 12.27007056 -5.16000705 10.54313631 -4.125 8.8828125 C-2.42821857 6.04306024 -1.24882568 3.05962292 0 0 Z " fill="#60A5CA" transform="translate(356,365)"/>
<path d="M0 0 C0.33 0 0.66 0 1 0 C1.33 6.93 1.66 13.86 2 21 C1.01 21 0.02 21 -1 21 C-1.02710123 18.4374282 -1.04688771 15.87514635 -1.0625 13.3125 C-1.07087891 12.59126953 -1.07925781 11.87003906 -1.08789062 11.12695312 C-1.10543632 7.28444618 -0.93524221 3.73360474 0 0 Z " fill="#B6AEB5" transform="translate(182,182)"/>
<path d="M0 0 C0.99 0.33 1.98 0.66 3 1 C3.6875 3.0625 3.6875 3.0625 4 5 C4.66 5 5.32 5 6 5 C7 6.66666667 8 8.33333333 9 10 C9.66 10 10.32 10 11 10 C11.66 12.31 12.32 14.62 13 17 C12.34 17.33 11.68 17.66 11 18 C10.484375 17.030625 9.96875 16.06125 9.4375 15.0625 C7.15153079 11.01872775 4.32908652 7.50462032 1.390625 3.91796875 C0 2 0 2 0 0 Z " fill="#2C8CC3" transform="translate(282,118)"/>
<path d="M0 0 C1.32 0.33 2.64 0.66 4 1 C5.41030314 7.73811499 4.66561666 14.19022959 4 21 C3.67 21 3.34 21 3 21 C2.92652344 19.7315625 2.92652344 19.7315625 2.8515625 18.4375 C2.43075986 12.05290815 1.80649237 6.14207405 0 0 Z " fill="#7ABAD7" transform="translate(304,166)"/>
<path d="M0 0 C5.92863717 1.16651426 11.38798394 2.75519358 17 5 C16.34 5.66 15.68 6.32 15 7 C11.5 6.875 11.5 6.875 8 6 C6.5625 3.9375 6.5625 3.9375 6 2 C4.35 2 2.7 2 1 2 C0.67 1.34 0.34 0.68 0 0 Z " fill="#5CA7CD" transform="translate(272,81)"/>
<path d="M0 0 C1.98 0.99 1.98 0.99 4 2 C4 2.66 4 3.32 4 4 C4.5775 4.2475 5.155 4.495 5.75 4.75 C8.3002997 6.16683317 10.01785701 7.87627537 12 10 C8.07316532 9.72603479 6.27231386 9.22390251 3.1875 6.6875 C1.21504445 4.26419747 0.33781219 3.04030971 0 0 Z " fill="#62A8C9" transform="translate(248,173)"/>
<path d="M0 0 C0.33 0 0.66 0 1 0 C1.22151549 1.79008467 1.42682213 3.58218162 1.625 5.375 C1.74101562 6.37273437 1.85703125 7.37046875 1.9765625 8.3984375 C1.98429688 9.25695312 1.99203125 10.11546875 2 11 C1.34 11.66 0.68 12.32 0 13 C-0.99 13 -1.98 13 -3 13 C-2.45144652 8.428721 -1.58255197 4.32564205 0 0 Z " fill="#464679" transform="translate(139,146)"/>
<path d="M0 0 C-0.33 0.66 -0.66 1.32 -1 2 C-1.66 2 -2.32 2 -3 2 C-2.67 2.99 -2.34 3.98 -2 5 C-5.96 5 -9.92 5 -14 5 C-11.75043698 2.75043698 -9.93676737 1.99489035 -7 0.8125 C-6.113125 0.44769531 -5.22625 0.08289063 -4.3125 -0.29296875 C-2 -1 -2 -1 0 0 Z " fill="#52AAD0" transform="translate(209,83)"/>
<path d="M0 0 C0.7425 0.495 0.7425 0.495 1.5 1 C-2.10993172 2.13480527 -5.4842327 2.10015767 -9.25 2.0625 C-10.42046875 2.05347656 -11.5909375 2.04445313 -12.796875 2.03515625 C-13.68890625 2.02355469 -14.5809375 2.01195313 -15.5 2 C-11.4398483 -2.0601517 -5.1299656 -2.05198624 0 0 Z " fill="#47A0CB" transform="translate(232.5,79)"/>
<path d="M0 0 C1.485 0.99 1.485 0.99 3 2 C3 3.32 3 4.64 3 6 C3.61875 6.20625 4.2375 6.4125 4.875 6.625 C7.84653645 8.54775888 8.13024659 10.66594527 9 14 C5.40768729 10.5103248 1.98132051 7.03355127 -1 3 C-0.67 2.01 -0.34 1.02 0 0 Z " fill="#548EBA" transform="translate(164,389)"/>
<path d="M0 0 C0.66 0.33 1.32 0.66 2 1 C1.67 1.99 1.34 2.98 1 4 C-2.91390601 5.47694566 -5.99434629 6.60226148 -10 5 C-10.33 5.66 -10.66 6.32 -11 7 C-12.65 6.67 -14.3 6.34 -16 6 C-16 5.67 -16 5.34 -16 5 C-15.18015625 4.80664062 -14.3603125 4.61328125 -13.515625 4.4140625 C-12.43796875 4.15367187 -11.3603125 3.89328125 -10.25 3.625 C-8.64898437 3.24214844 -8.64898437 3.24214844 -7.015625 2.8515625 C-4.05597899 2.12330461 -4.05597899 2.12330461 -1.734375 0.8359375 C-1.16203125 0.56007813 -0.5896875 0.28421875 0 0 Z " fill="#637199" transform="translate(280,385)"/>
<path d="M0 0 C1.63166258 4.02941064 0.27379498 6.77730196 -1.25 10.6875 C-1.68828125 11.84636719 -2.1265625 13.00523437 -2.578125 14.19921875 C-4 17 -4 17 -7 18 C-7 18.66 -7 19.32 -7 20 C-7.66 19.67 -8.32 19.34 -9 19 C-8.43410156 17.87980469 -7.86820312 16.75960938 -7.28515625 15.60546875 C-6.54416494 14.13286578 -5.80328534 12.66020659 -5.0625 11.1875 C-4.50272461 10.08051758 -4.50272461 10.08051758 -3.93164062 8.95117188 C-3.57392578 8.23896484 -3.21621094 7.52675781 -2.84765625 6.79296875 C-2.51773682 6.1383667 -2.18781738 5.48376465 -1.84790039 4.80932617 C-0.88166321 2.83869379 -0.88166321 2.83869379 0 0 Z " fill="#3284B4" transform="translate(313,374)"/>
<path d="M0 0 C2.475 0.495 2.475 0.495 5 1 C5.12375 2.134375 5.2475 3.26875 5.375 4.4375 C5.684375 6.2009375 5.684375 6.2009375 6 8 C6.66 8.33 7.32 8.66 8 9 C7.67 10.32 7.34 11.64 7 13 C5.82786955 11.21190303 4.66244474 9.41940875 3.5 7.625 C2.8503125 6.62726563 2.200625 5.62953125 1.53125 4.6015625 C0 2 0 2 0 0 Z " fill="#5999C0" transform="translate(155,378)"/>
<path d="M0 0 C3.86933162 0.57323431 6.15222057 2.38953552 9 5 C9 5.66 9 6.32 9 7 C9.66 7.33 10.32 7.66 11 8 C9.25 8.75 9.25 8.75 7 9 C4.9375 7.125 4.9375 7.125 3 5 C2.01 4.67 1.02 4.34 0 4 C0 2.68 0 1.36 0 0 Z " fill="#47A2CA" transform="translate(297,217)"/>
<path d="M0 0 C0.99 0.33 1.98 0.66 3 1 C3 1.66 3 2.32 3 3 C3.99 3.33 4.98 3.66 6 4 C6 5.32 6 6.64 6 8 C6.66 8 7.32 8 8 8 C8 8.66 8 9.32 8 10 C5.525 9.01 5.525 9.01 3 8 C2.67 8.66 2.34 9.32 2 10 C1.4465236 7.92446352 1 6.15634036 1 4 C0.68521554 2.66216607 0.35412344 1.32796291 0 0 Z " fill="#3DA1CF" transform="translate(311,228)"/>
<path d="M0 0 C3.40312738 1.05875074 6.01353231 2.00902154 9 4 C9 4.66 9 5.32 9 6 C9.66 6 10.32 6 11 6 C11 6.99 11 7.98 11 9 C11.66 9 12.32 9 13 9 C12.67 9.66 12.34 10.32 12 11 C10.49428343 9.88266271 8.99555708 8.75589965 7.5 7.625 C6.6646875 6.99851562 5.829375 6.37203125 4.96875 5.7265625 C4.3190625 5.15679687 3.669375 4.58703125 3 4 C3 3.34 3 2.68 3 2 C2.01 1.67 1.02 1.34 0 1 C0 0.67 0 0.34 0 0 Z " fill="#6CA9CA" transform="translate(267,250)"/>
<path d="M0 0 C1 2 1 2 0.0625 5.125 C-0.288125 6.07375 -0.63875 7.0225 -1 8 C-1.66 8 -2.32 8 -3 8 C-3.33 9.65 -3.66 11.3 -4 13 C-4.66 13 -5.32 13 -6 13 C-6.33 14.32 -6.66 15.64 -7 17 C-7.33 16.34 -7.66 15.68 -8 15 C-6.94768851 12.5749805 -5.84614846 10.27492731 -4.625 7.9375 C-4.295 7.28716797 -3.965 6.63683594 -3.625 5.96679688 C-1.16836021 1.16836021 -1.16836021 1.16836021 0 0 Z " fill="#69698F" transform="translate(148,129)"/>
<path d="M0 0 C3.59634744 3.49359465 6.83451967 7.11098131 10 11 C9.67 11.66 9.34 12.32 9 13 C8.34 12.67 7.68 12.34 7 12 C7 11.34 7 10.68 7 10 C6.34 10 5.68 10 5 10 C2 6.53846154 2 6.53846154 2 4 C1.34 4 0.68 4 0 4 C0 2.68 0 1.36 0 0 Z " fill="#57A0C3" transform="translate(324,112)"/>
<path d="M0 0 C0 0.33 0 0.66 0 1 C-1.98 1 -3.96 1 -6 1 C-6 1.66 -6 2.32 -6 3 C-10.95 3.66 -15.9 4.32 -21 5 C-15.48255518 -0.51744482 -7.29855762 -0.1258372 0 0 Z " fill="#103772" transform="translate(210,89)"/>
<path d="M0 0 C0.66 0 1.32 0 2 0 C6.09030544 5.14209827 6.09030544 5.14209827 5.75 8.375 C5.5025 8.91125 5.255 9.4475 5 10 C0.07692308 5.69230769 0.07692308 5.69230769 -0.3125 2.1875 C-0.209375 1.465625 -0.10625 0.74375 0 0 Z " fill="#3E97C3" transform="translate(345,263)"/>
<path d="M0 0 C0.33 0.66 0.66 1.32 1 2 C1.99 2.33 2.98 2.66 4 3 C3.01 3.495 3.01 3.495 2 4 C2 4.66 2 5.32 2 6 C1.01 6.33 0.02 6.66 -1 7 C-2.71567661 10.50294871 -2.71567661 10.50294871 -4 14 C-4.33 14 -4.66 14 -5 14 C-5.20140476 10.37471432 -4.85776765 8.13498292 -3 5 C-2.34 5 -1.68 5 -1 5 C-0.67 3.35 -0.34 1.7 0 0 Z " fill="#262965" transform="translate(145,137)"/>
<path d="M0 0 C2.67455183 1.33727591 2.98881385 2.73288323 4.1875 5.4375 C4.55230469 6.24058594 4.91710937 7.04367187 5.29296875 7.87109375 C6 10 6 10 5 12 C4.34 11.67 3.68 11.34 3 11 C3 10.01 3 9.02 3 8 C2.01 8 1.02 8 0 8 C0 5.36 0 2.72 0 0 Z " fill="#55A5CD" transform="translate(351,271)"/>
<path d="M0 0 C0.66 0.33 1.32 0.66 2 1 C1.01 2.98 0.02 4.96 -1 7 C-1.99 7 -2.98 7 -4 7 C-4.33 7.99 -4.66 8.98 -5 10 C-5.66 10 -6.32 10 -7 10 C-5.6062718 5.56541027 -3.39417765 3.12621626 0 0 Z " fill="#5EA8CC" transform="translate(213,164)"/>
<path d="M0 0 C0.66 0.33 1.32 0.66 2 1 C1 4 1 4 -2.3125 5.75 C-5.93653994 6.97848812 -6.6258971 7.10235591 -10 6 C-8.3811004 4.96951963 -6.75467511 3.95085322 -5.125 2.9375 C-4.22007812 2.36902344 -3.31515625 1.80054687 -2.3828125 1.21484375 C-1.20332031 0.61349609 -1.20332031 0.61349609 0 0 Z " fill="#5F8DB9" transform="translate(193,88)"/>
<path d="M0 0 C0 0.66 0 1.32 0 2 C-1.98 2.33 -3.96 2.66 -6 3 C-6 3.66 -6 4.32 -6 5 C-9.4352048 7.29013653 -10.985331 7.17842973 -15 7 C-10.91129463 3.29461076 -5.70674915 0 0 0 Z " fill="#AAADC5" transform="translate(222,126)"/>
<path d="M0 0 C1.14926266 0.95421808 2.29430541 1.91352045 3.4375 2.875 C4.07558594 3.40867187 4.71367187 3.94234375 5.37109375 4.4921875 C7 6 7 6 8 8 C5.69 7.67 3.38 7.34 1 7 C0.67 4.69 0.34 2.38 0 0 Z " fill="#4BA3CA" transform="translate(316,104)"/>
<path d="M0 0 C0.33 0 0.66 0 1 0 C0.8858134 1.93816735 0.75826577 3.87555099 0.625 5.8125 C0.55539062 6.89144531 0.48578125 7.97039062 0.4140625 9.08203125 C0 12 0 12 -2 15 C-3.6112798 9.28728072 -2.08989546 5.31329355 0 0 Z " fill="#5A9EC7" transform="translate(364,337)"/>
<path d="M0 0 C3.34998521 1.11666174 3.79340222 1.74694925 5.6875 4.5625 C6.12449219 5.20316406 6.56148437 5.84382813 7.01171875 6.50390625 C7.33785156 6.99761719 7.66398438 7.49132812 8 8 C7.67 8.66 7.34 9.32 7 10 C4.36 7.69 1.72 5.38 -1 3 C-0.67 2.01 -0.34 1.02 0 0 Z " fill="#588BBB" transform="translate(174,401)"/>
<path d="M0 0 C4.59306496 1.4859916 7.43569245 3.85014682 11 7 C10.01 7.495 10.01 7.495 9 8 C8.67 8.66 8.34 9.32 8 10 C7.67 9.01 7.34 8.02 7 7 C6.01 6.67 5.02 6.34 4 6 C1.63493157 3.99878825 1.0106678 3.03200339 0 0 Z " fill="#555586" transform="translate(202,240)"/>
<path d="M0 0 C0.33 0 0.66 0 1 0 C1.19448477 2.12437212 1.38038289 4.24953191 1.5625 6.375 C1.66691406 7.55835938 1.77132813 8.74171875 1.87890625 9.9609375 C2 13 2 13 1 15 C-1.31 15 -3.62 15 -6 15 C-6 14.67 -6 14.34 -6 14 C-4.35 14 -2.7 14 -1 14 C-0.67 9.38 -0.34 4.76 0 0 Z " fill="#69B2CA" transform="translate(353,173)"/>
<path d="M0 0 C2.74792483 3.40219265 6 7.48464588 6 12 C5.01 12 4.02 12 3 12 C2.49166409 10.75336669 1.99368855 9.50250613 1.5 8.25 C1.2215625 7.55390625 0.943125 6.8578125 0.65625 6.140625 C0 4 0 4 0 0 Z " fill="#5AA4C7" transform="translate(341,136)"/>
<path d="M0 0 C2.64752004 2.57784846 4.94432065 4.91648098 7 8 C6.625 10.1875 6.625 10.1875 6 12 C6 11.34 6 10.68 6 10 C5.34 10 4.68 10 4 10 C3.34 8.35 2.68 6.7 2 5 C1.34 5 0.68 5 0 5 C0 3.35 0 1.7 0 0 Z " fill="#686895" transform="translate(284,310)"/>
<path d="M0 0 C0.99 0.33 1.98 0.66 3 1 C4.10514766 4.31544299 4.32107631 7.20410111 4.5625 10.6875 C4.64628906 11.86699219 4.73007812 13.04648438 4.81640625 14.26171875 C4.87699219 15.16535156 4.93757813 16.06898438 5 17 C4.34 16.67 3.68 16.34 3 16 C2.40234375 13.41796875 2.40234375 13.41796875 1.9375 10.1875 C1.42900771 6.73731677 0.92097773 3.36605135 0 0 Z " fill="#3A96BB" transform="translate(345,148)"/>
<path d="M0 0 C1.98 0 3.96 0 6 0 C4.95125002 2.62187494 4.35068687 3.79371361 1.875 5.25 C1.25625 5.4975 0.6375 5.745 0 6 C-1.125 2.25 -1.125 2.25 0 0 Z " fill="#308BC6" transform="translate(152,368)"/>
<path d="M0 0 C2.5999298 2.51027705 4.99091227 4.9863684 7 8 C7 8.66 7 9.32 7 10 C6.01 10 5.02 10 4 10 C1.40311527 7.40311527 0.07941399 5.89340735 -0.25 2.1875 C-0.1675 1.465625 -0.085 0.74375 0 0 Z " fill="#5582AF" transform="translate(195,358)"/>
<path d="M0 0 C2.97 0.99 5.94 1.98 9 3 C9.33 4.65 9.66 6.3 10 8 C6.05205855 6.32971708 3.18203882 3.8204435 0 1 C0 0.67 0 0.34 0 0 Z " fill="#696891" transform="translate(246,338)"/>
<path d="M0 0 C2.475 0.495 2.475 0.495 5 1 C5 3.97 5 6.94 5 10 C2.57244264 7.57244264 1.42454809 5.10810492 0 2 C0 1.34 0 0.68 0 0 Z " fill="#2C94CE" transform="translate(295,137)"/>
<path d="M0 0 C1.32 0 2.64 0 4 0 C4.33 0.99 4.66 1.98 5 3 C5.99 3.66 6.98 4.32 8 5 C8 5.66 8 6.32 8 7 C8.66 7.33 9.32 7.66 10 8 C6.45595664 8 5.89732095 7.39010515 3.3125 5.125 C2.68988281 4.59132813 2.06726563 4.05765625 1.42578125 3.5078125 C0 2 0 2 0 0 Z " fill="#2B8AC2" transform="translate(271,108)"/>
<path d="M0 0 C12.37259343 -0.43412609 12.37259343 -0.43412609 16.69921875 3.57421875 C17.12847656 4.04472656 17.55773437 4.51523438 18 5 C16.93072266 4.69255859 16.93072266 4.69255859 15.83984375 4.37890625 C10.56023251 2.89379353 5.45288884 1.60587654 0 1 C0 0.67 0 0.34 0 0 Z " fill="#2A83B9" transform="translate(225,88)"/>
<path d="M0 0 C0.98484375 0.10183594 1.9696875 0.20367187 2.984375 0.30859375 C4.10585937 0.43427734 4.10585937 0.43427734 5.25 0.5625 C5.25 0.8925 5.25 1.2225 5.25 1.5625 C0.3 2.2225 -4.65 2.8825 -9.75 3.5625 C-9.75 2.5725 -9.75 1.5825 -9.75 0.5625 C-6.33860997 -0.53401823 -3.54344419 -0.37965473 0 0 Z " fill="#2D87BC" transform="translate(204.75,87.4375)"/>
<path d="M0 0 C0.66 0 1.32 0 2 0 C1.67 2.31 1.34 4.62 1 7 C1.66 7 2.32 7 3 7 C3 9.31 3 11.62 3 14 C1.02103213 11.03154819 0.47758046 9.30541501 -0.1875 5.875 C-0.36667969 4.98554688 -0.54585937 4.09609375 -0.73046875 3.1796875 C-0.81941406 2.46039063 -0.90835938 1.74109375 -1 1 C-0.67 0.67 -0.34 0.34 0 0 Z " fill="#5FA4C9" transform="translate(145,349)"/>
<path d="M0 0 C3.96 1.98 3.96 1.98 8 4 C8 4.33 8 4.66 8 5 C7.2575 5.144375 6.515 5.28875 5.75 5.4375 C3.47972261 5.90187492 1.24240521 6.41863569 -1 7 C-1 5 -1 5 1 3 C0.67 2.01 0.34 1.02 0 0 Z " fill="#B0AFBC" transform="translate(272,129)"/>
<path d="M0 0 C0.99 0.33 1.98 0.66 3 1 C0.53846154 6.66153846 0.53846154 6.66153846 -2.1875 8.375 C-2.785625 8.58125 -3.38375 8.7875 -4 9 C-4.33 8.01 -4.66 7.02 -5 6 C-3.68 6 -2.36 6 -1 6 C-1.309375 5.071875 -1.309375 5.071875 -1.625 4.125 C-1.810625 3.073125 -1.810625 3.073125 -2 2 C-1.34 1.34 -0.68 0.68 0 0 Z " fill="#4E4E7F" transform="translate(286,338)"/>
<path d="M0 0 C0.391875 0.45375 0.78375 0.9075 1.1875 1.375 C2.96944965 3.16809237 2.96944965 3.16809237 5.625 4 C6.40875 4.33 7.1925 4.66 8 5 C8.33 5.99 8.66 6.98 9 8 C5.62537285 7.45276317 3.91765 6.9451 1 5 C1 4.01 1 3.02 1 2 C0.34 1.67 -0.32 1.34 -1 1 C-0.67 0.67 -0.34 0.34 0 0 Z " fill="#2A2A65" transform="translate(276,305)"/>
<path d="M0 0 C2.96404505 2.80804268 5.44499019 5.18315774 7 9 C5.68 9.33 4.36 9.66 3 10 C2.67 8.02 2.34 6.04 2 4 C1.34 4 0.68 4 0 4 C0 2.68 0 1.36 0 0 Z " fill="#61B0D0" transform="translate(336,250)"/>
<path d="M0 0 C1.65 0 3.3 0 5 0 C5.33 0.99 5.66 1.98 6 3 C6.66 3.66 7.32 4.32 8 5 C8 5.66 8 6.32 8 7 C4.2047869 5.50902342 2.38957269 3.24299151 0 0 Z " fill="#595784" transform="translate(234,327)"/>
<path d="M0 0 C0.99 0.495 0.99 0.495 2 1 C3.1577506 4.47325181 3.06866652 7.36067448 3 11 C2.34 11 1.68 11 1 11 C0.67 7.37 0.34 3.74 0 0 Z " fill="#3373A1" transform="translate(303,155)"/>
<path d="M0 0 C0.66 0 1.32 0 2 0 C0.51218185 3.78717347 -1.61988409 5.77407001 -5 8 C-5.99 7.67 -6.98 7.34 -8 7 C-5.72058766 3.58088149 -5.59525083 3.89881271 -2 3 C-1.34 2.01 -0.68 1.02 0 0 Z " fill="#262B68" transform="translate(174,102)"/>
<path d="M0 0 C2.475 0.495 2.475 0.495 5 1 C5 1.66 5 2.32 5 3 C6.32 3 7.64 3 9 3 C9.33 3.99 9.66 4.98 10 6 C8.5164999 5.57742724 7.03823576 5.13643678 5.5625 4.6875 C4.73878906 4.44386719 3.91507813 4.20023437 3.06640625 3.94921875 C2.04353516 3.47935547 2.04353516 3.47935547 1 3 C0.67 2.01 0.34 1.02 0 0 Z " fill="#5D7AA0" transform="translate(202,423)"/>
<path d="M0 0 C0.66 0.33 1.32 0.66 2 1 C2 1.99 2 2.98 2 4 C2.99 4 3.98 4 5 4 C4.34 5.32 3.68 6.64 3 8 C1.35 6.35 -0.3 4.7 -2 3 C-1.34 3 -0.68 3 0 3 C0 2.01 0 1.02 0 0 Z " fill="#467DB1" transform="translate(184,408)"/>
<path d="M0 0 C0.33 0.66 0.66 1.32 1 2 C1.66 2 2.32 2 3 2 C1.9024777 4.99324263 1.32317108 5.84610901 -1.625 7.25 C-2.40875 7.4975 -3.1925 7.745 -4 8 C-2.87548273 5.0280615 -1.77706209 2.66559313 0 0 Z " fill="#625F94" transform="translate(311,356)"/>
<path d="M0 0 C0.66 0 1.32 0 2 0 C4.125 4.625 4.125 4.625 3 8 C1.35 6.02 -0.3 4.04 -2 2 C-1.34 1.34 -0.68 0.68 0 0 Z " fill="#595787" transform="translate(155,253)"/>
<path d="M0 0 C1.98 0.99 1.98 0.99 4 2 C4 2.66 4 3.32 4 4 C4.9590625 4.433125 4.9590625 4.433125 5.9375 4.875 C8 6 8 6 9 8 C8.34 8 7.68 8 7 8 C6.67 8.66 6.34 9.32 6 10 C5.87625 9.071875 5.87625 9.071875 5.75 8.125 C5.21189267 5.81653196 5.21189267 5.81653196 3 5 C1 4 1 4 0.25 1.875 C0.1675 1.25625 0.085 0.6375 0 0 Z " fill="#6C6C93" transform="translate(213,248)"/>
<path d="M0 0 C2.64 0 5.28 0 8 0 C8 1.32 8 2.64 8 4 C6.35 4 4.7 4 3 4 C3 3.34 3 2.68 3 2 C2.01 1.67 1.02 1.34 0 1 C0 0.67 0 0.34 0 0 Z " fill="#499EC7" transform="translate(213,203)"/>
<path d="M0 0 C0.99 0 1.98 0 3 0 C2.88637738 1.4800841 2.75877092 2.95910074 2.625 4.4375 C2.52058594 5.67306641 2.52058594 5.67306641 2.4140625 6.93359375 C2.27742187 7.61550781 2.14078125 8.29742187 2 9 C1.01 9.495 1.01 9.495 0 10 C0.33 8.02 0.66 6.04 1 4 C0.34 4 -0.32 4 -1 4 C-0.67 2.68 -0.34 1.36 0 0 Z " fill="#3C9FCF" transform="translate(205,174)"/>
<path d="M0 0 C2.7972908 2.06756277 3.02692273 3.14440371 3.6875 6.6875 C3.790625 7.780625 3.89375 8.87375 4 10 C0.9083091 7.47043472 0.09068668 4.77545388 -1 1 C-0.67 0.67 -0.34 0.34 0 0 Z " fill="#A7A7C0" transform="translate(300,155)"/>
<path d="M0 0 C0.99 0.66 1.98 1.32 3 2 C3 3.32 3 4.64 3 6 C1.35 6.33 -0.3 6.66 -2 7 C-2 5.68 -2 4.36 -2 3 C-1.34 3 -0.68 3 0 3 C0 2.01 0 1.02 0 0 Z " fill="#1D245B" transform="translate(286,129)"/>
<path d="M0 0 C-3.1254959 2.64465038 -6.08788267 3.84414715 -10 5 C-9 2 -9 2 -7.25 0.8125 C-4.70039426 -0.10819096 -2.69076919 -0.14948718 0 0 Z " fill="#5EADC3" transform="translate(305,424)"/>
<path d="M0 0 C0.99 0.33 1.98 0.66 3 1 C2.67 2.98 2.34 4.96 2 7 C1.01 7 0.02 7 -1 7 C-0.67 4.69 -0.34 2.38 0 0 Z " fill="#419BC5" transform="translate(359,352)"/>
<path d="M0 0 C2.64 0.66 5.28 1.32 8 2 C8 3.65 8 5.3 8 7 C6.66382648 6.02471263 5.3311249 5.04466681 4 4.0625 C3.2575 3.51722656 2.515 2.97195313 1.75 2.41015625 C1.1725 1.94480469 0.595 1.47945313 0 1 C0 0.67 0 0.34 0 0 Z " fill="#515082" transform="translate(222,317)"/>
<path d="M0 0 C2.18975773 3.28463659 2.99806563 6.20696275 4 10 C2.68 9.34 1.36 8.68 0 8 C0 5.36 0 2.72 0 0 Z " fill="#4878AC" transform="translate(187,339)"/>
<path d="M0 0 C2.64 1.98 5.28 3.96 8 6 C6.68 6.33 5.36 6.66 4 7 C0 2.25 0 2.25 0 0 Z " fill="#6F6D93" transform="translate(269,297)"/>
<path d="M0 0 C1.32 0 2.64 0 4 0 C6.25 3 6.25 3 8 6 C5 6 5 6 3.61328125 4.6875 C2.40885417 3.125 1.20442708 1.5625 0 0 Z " fill="#474578" transform="translate(159,261)"/>
<path d="M0 0 C0.33 0.66 0.66 1.32 1 2 C0.34 2 -0.32 2 -1 2 C-1 2.66 -1 3.32 -1 4 C-1.66 4 -2.32 4 -3 4 C-3 4.66 -3 5.32 -3 6 C-4.65 6.33 -6.3 6.66 -8 7 C-5.42215154 4.35247996 -3.08351902 2.05567935 0 0 Z " fill="#A5A8C2" transform="translate(206,133)"/>
<path d="M0 0 C0.66 0.33 1.32 0.66 2 1 C0.02 3.31 -1.96 5.62 -4 8 C-4.99 7.34 -5.98 6.68 -7 6 C-4.69 4.02 -2.38 2.04 0 0 Z " fill="#6B6C9A" transform="translate(175,99)"/>
<path d="M0 0 C0.99 0.33 1.98 0.66 3 1 C3.33 1.99 3.66 2.98 4 4 C1.69 4.33 -0.62 4.66 -3 5 C-3 3 -3 3 -1.5 1.375 C-1.005 0.92125 -0.51 0.4675 0 0 Z " fill="#59AFC6" transform="translate(290,426)"/>
<path d="M0 0 C1.32 0.33 2.64 0.66 4 1 C3.34 3.64 2.68 6.28 2 9 C1.34 9 0.68 9 0 9 C0 6.03 0 3.06 0 0 Z " fill="#222D73" transform="translate(297,392)"/>
<path d="M0 0 C0.33 0.66 0.66 1.32 1 2 C1.66 2 2.32 2 3 2 C3 2.66 3 3.32 3 4 C3.66 4 4.32 4 5 4 C4.67 4.99 4.34 5.98 4 7 C2.02 5.35 0.04 3.7 -2 2 C-1.34 1.34 -0.68 0.68 0 0 Z " fill="#6C6D91" transform="translate(194,290)"/>
<path d="M0 0 C1.32 0 2.64 0 4 0 C4.33 1.32 4.66 2.64 5 4 C3.68 4.33 2.36 4.66 1 5 C0.67 3.35 0.34 1.7 0 0 Z " fill="#2C98C8" transform="translate(331,248)"/>
<path d="M0 0 C5.875 3.75 5.875 3.75 7 6 C2.25 5.125 2.25 5.125 0 4 C0 2.68 0 1.36 0 0 Z " fill="#5AABC8" transform="translate(272,194)"/>
<path d="M0 0 C0.99 0.33 1.98 0.66 3 1 C3.6875 3.0625 3.6875 3.0625 4 5 C3.01 5.33 2.02 5.66 1 6 C1 5.34 1 4.68 1 4 C-0.32 3.34 -1.64 2.68 -3 2 C-2.01 1.67 -1.02 1.34 0 1 C0 0.67 0 0.34 0 0 Z " fill="#2D2D62" transform="translate(281,130)"/>
<path d="M0 0 C0.66 1.32 1.32 2.64 2 4 C1.01 4.33 0.02 4.66 -1 5 C-1.66 5.66 -2.32 6.32 -3 7 C-3.66 6.34 -4.32 5.68 -5 5 C-3.35 3.35 -1.7 1.7 0 0 Z " fill="#2EA6D0" transform="translate(294,409)"/>
<path d="M0 0 C0.99 0.33 1.98 0.66 3 1 C1.37660195 2.70884005 -0.29319053 4.37446717 -2 6 C-2.66 6 -3.32 6 -4 6 C-3.67 4.68 -3.34 3.36 -3 2 C-2.01 2 -1.02 2 0 2 C0 1.34 0 0.68 0 0 Z " fill="#163D7E" transform="translate(289,409)"/>
<path d="M0 0 C0.66 0.33 1.32 0.66 2 1 C2.33 1.99 2.66 2.98 3 4 C3.99 4.33 4.98 4.66 6 5 C5.01 5.495 5.01 5.495 4 6 C-0.70491803 3.59016393 -0.70491803 3.59016393 -2 1 C-1.34 0.67 -0.68 0.34 0 0 Z " fill="#444274" transform="translate(244,333)"/>
<path d="M0 0 C3.624581 1.20819367 3.40170957 1.80341913 5 5 C4.67 5.66 4.34 6.32 4 7 C4.66 7.33 5.32 7.66 6 8 C5.01 8 4.02 8 3 8 C0 2.25 0 2.25 0 0 Z " fill="#68B6D6" transform="translate(310,291)"/>
<path d="M0 0 C2.03833424 1.2739589 4.03852126 2.61061923 6 4 C6 4.66 6 5.32 6 6 C6.66 6.33 7.32 6.66 8 7 C7.01 7 6.02 7 5 7 C4.67 6.34 4.34 5.68 4 5 C1.47266765 4.34444881 1.47266765 4.34444881 -1 4 C-0.67 2.68 -0.34 1.36 0 0 Z " fill="#71719F" transform="translate(227,260)"/>
<path d="M0 0 C5.875 3.75 5.875 3.75 7 6 C4.625 5.8125 4.625 5.8125 2 5 C0.6875 2.4375 0.6875 2.4375 0 0 Z " fill="#64ADC9" transform="translate(287,207)"/>
<path d="M0 0 C1.9375 0.625 1.9375 0.625 4 2 C4.75 5.125 4.75 5.125 5 8 C2.20127563 5.47211993 0.54226981 3.79588866 0 0 Z " fill="#459CC2" transform="translate(248,173)"/>
<path d="M0 0 C1.32 0.33 2.64 0.66 4 1 C3.67 3.31 3.34 5.62 3 8 C1.58622659 5.36095629 0.62759865 2.92879371 0 0 Z " fill="#66A6CB" transform="translate(304,166)"/>
<path d="M0 0 C2.09749995 2.35968744 2.96905704 3.54616994 3.1875 6.75 C3.125625 7.4925 3.06375 8.235 3 9 C0.7522025 6.94766315 -0.0022242 5.99332739 -1 3 C-0.67 2.01 -0.34 1.02 0 0 Z " fill="#183B71" transform="translate(300,149)"/>
<path d="M0 0 C0.99 0 1.98 0 3 0 C3.66 2.31 4.32 4.62 5 7 C4.01 7.495 4.01 7.495 3 8 C0 3.375 0 3.375 0 0 Z " fill="#2992CC" transform="translate(290,128)"/>
<path d="M0 0 C-1.0625 1.5625 -1.0625 1.5625 -3 3 C-6.6875 2.6875 -6.6875 2.6875 -10 2 C-6.3558226 -0.4294516 -4.28758728 -0.16179575 0 0 Z " fill="#40B4DD" transform="translate(264,431)"/>
<path d="M0 0 C0.99 0.33 1.98 0.66 3 1 C3 2.65 3 4.3 3 6 C1.68 5.34 0.36 4.68 -1 4 C-0.67 2.68 -0.34 1.36 0 0 Z " fill="#1D84C5" transform="translate(165,385)"/>
<path d="M0 0 C2.9375 0.8125 2.9375 0.8125 6 2 C6.33 2.99 6.66 3.98 7 5 C4.625 4.75 4.625 4.75 2 4 C0.6875 1.9375 0.6875 1.9375 0 0 Z " fill="#3A6A98" transform="translate(208,376)"/>
<path d="M0 0 C3.26460973 1.80412643 4.88929795 2.83394693 7 6 C5.35 6 3.7 6 2 6 C2 4.68 2 3.36 2 2 C1.34 2 0.68 2 0 2 C0 1.34 0 0.68 0 0 Z " fill="#777899" transform="translate(238,270)"/>
<path d="M0 0 C2.31 0 4.62 0 7 0 C7.33 0.99 7.66 1.98 8 3 C5.03 3 2.06 3 -1 3 C-0.67 2.01 -0.34 1.02 0 0 Z " fill="#252A68" transform="translate(228,267)"/>
<path d="M0 0 C0.66 0 1.32 0 2 0 C2.12375 0.61875 2.2475 1.2375 2.375 1.875 C2.87197356 4.19120832 2.87197356 4.19120832 5 6 C4.67 6.99 4.34 7.98 4 9 C1.525 5.04 1.525 5.04 -1 1 C-0.67 0.67 -0.34 0.34 0 0 Z " fill="#79769C" transform="translate(148,245)"/>
<path d="M0 0 C1.32 0.66 2.64 1.32 4 2 C4 2.99 4 3.98 4 5 C2.0625 4.6875 2.0625 4.6875 0 4 C-0.33 3.01 -0.66 2.02 -1 1 C-0.67 0.67 -0.34 0.34 0 0 Z " fill="#429BC5" transform="translate(268,191)"/>
<path d="M0 0 C0.66 0.33 1.32 0.66 2 1 C1 4 1 4 -2 6 C-2.99 5.67 -3.98 5.34 -5 5 C-3.35 3.35 -1.7 1.7 0 0 Z " fill="#AEB2C4" transform="translate(197,140)"/>
<path d="M0 0 C4.455 0.99 4.455 0.99 9 2 C9 2.33 9 2.66 9 3 C6.03 3 3.06 3 0 3 C0 2.01 0 1.02 0 0 Z " fill="#A3A9C1" transform="translate(258,124)"/>
<path d="M0 0 C0.33 1.32 0.66 2.64 1 4 C-1.9719385 2.87548273 -4.33440687 1.77706209 -7 0 C-4.3333581 -1.33332095 -2.83319697 -0.67102033 0 0 Z " fill="#363A65" transform="translate(271,125)"/>
<path d="M0 0 C0.721875 0.144375 1.44375 0.28875 2.1875 0.4375 C3.5796875 0.7159375 3.5796875 0.7159375 5 1 C6.66666667 1.33333333 8.33333333 1.66666667 10 2 C10 2.33 10 2.66 10 3 C2.25 3.125 2.25 3.125 0 2 C0 1.34 0 0.68 0 0 Z " fill="#2A96C3" transform="translate(268,81)"/>
</svg>
